<?xml version="1.0" encoding="UTF-8"?><svg xmlns="http://www.w3.org/2000/svg" version="1.1" width="600px" height="600px" viewBox="-40 -40 720 720"><polyline points="315 -27.3 645 138.3 645 481.6 315 647.1 315 -27.3 348 68.2 348 551.9 358 546.8 358 73.1 348 68.2 390 89.3 390 530.8 575 438.2 575 181.6 390 89.3 348 68.2" fill="black" fill-rule="evenodd"/><polyline points="305 -27.3 -25 138.3 -25 481.6 305 647.1 305 -27.3 272 68.2 272 551.9 262 546.8 262 73.1 272 68.2 230 89.3 230 530.8 45 438.2 45 181.6 230 89.3 272 68.2" fill="black" fill-rule="evenodd"/><polyline points="220 165.8 220 244.2 195 256.7 195 363.3 220 375.8 220 454.2 125 406.7 125 213.4" fill="black"/><polyline points="400 165.8 400 244.2 425 256.6 495 213.2" fill="black"/><polyline points="400 275 400 345 425 345 425 363.3 400 375.8 400 454.2 495 406.7 495 275" fill="black"/></svg>