<?xml version="1.0" encoding="UTF-8" standalone="no"?>

<svg xmlns:svg="http://www.w3.org/2000/svg" xmlns="http://www.w3.org/2000/svg" xmlns:xlink="http://www.w3.org/1999/xlink"  version="1.1"
     width="2000"
     height="1000">
	<g transform="scale(4.7 4.7) translate(-170 -60)" fill="#000">
    <!-- central tail feather -->
    <path d="m379.05397,270.819 c-3.81976,-1.56531 -6.49341,-6.96827 -7.73438,-15.62983 -0.20025,-1.39772 -0.2039,-1.54607 -0.0958,-3.89063 0.14021,-3.04172 0.41234,-7.54509 1.18119,-19.54688 1.2586,-19.64704 1.69852,-27.72816 1.9266,-35.39062 0.0568,-1.90782 0.12315,-3.56732 0.14747,-3.68775 0.0409,-2.49443 2.53778,0.21104 5.52098,1.14087 3.06366,-0.87742 5.36198,-3.81406 5.52097,-1.14087 0.0244,0.12043 0.0907,1.77993 0.14748,3.68775 0.22807,7.66246 0.668,15.74358 1.9266,35.39062 0.76885,12.00179 1.04097,16.50516 1.18118,19.54688 0.10807,2.34456 0.10442,2.49291 -0.0958,3.89063 -0.44309,3.09256 -1.20442,6.28201 -2.02643,8.48945 -1.3303,3.57236 -3.36032,6.15801 -5.55539,7.07587 -0.99086,0.41431 -1.17668,0.42019 -2.0446,0.0645z"/>
	
	<!-- between legs feather part -->
    <path d="m372.33369,187.06803 -0.2178,-9.22849 c-0.11979,-5.07568 -0.21949,-9.3433 -0.22154,-9.48361 3.9927,-1.82654 12.34106,-2.00368 16.21127,0 -0.002,0.14031 -0.10175,4.40793 -0.22153,9.48361 l -0.2178,9.22849 c-9.52503,5.78188 -5.97046,5.74603 -15.3326,0z" />
	
	<!-- body -->
    <path d="m355.96121,188.82173 c-0.49547,-0.46284 -0.74649,-1.18012 -0.84855,-2.42473 -0.25755,-3.14091 -0.48369,-10.55189 -1.03692,-33.98287 l -0.28282,-11.97816 -0.88975,-4.94372 c-1.2546,-6.97098 -1.69045,-9.11468 -2.11488,-10.40171 -0.22342,-0.67746 0.35626,-0.1243 -8.42893,-8.04342 -15.30923,-13.8 -18.90964,-17.237179 -25.15144,-24.011169 l -2.68953,-2.91884 -1.66545,-0.0605 c-0.91601,-0.0333 -3.9225,-0.14233 -6.68109,-0.24242 -7.0216,-0.25475 -6.0474,-0.11136 -8.22945,-1.21132 -2.988,-1.50622 -4.36518,-2.51343 -7.01115,-5.12761 -1.5657,-1.54689 -3.11906,-3.32397 -3.57147,-4.08585 -0.6607,-1.11265 -0.58171,-1.17232 1.71341,-1.29424 2.2851,-0.12138 28.60759,-0.1183 30.64554,0.004 2.93606,0.17561 3.84176,0.40187 6.02017,1.50395 1.58934,0.80407 1.98262,1.06555 2.77632,1.84596 1.34749,1.3249 1.94887,3.23608 1.80799,5.74568 -0.0757,1.34862 -0.2372,2.35674 -0.72523,4.52725 -0.66155,2.94227 -0.63545,3.10791 0.67575,4.28856 2.94169,2.64882 11.94599,9.674269 15.35917,11.983719 2.10649,1.42532 2.77014,1.48066 4.28517,0.35731 0.68868,-0.51063 3.19214,-2.62916 3.45692,-2.92539 0.55673,-0.62285 5.45782,-4.31192 8.15625,-6.139229 2.38398,-1.61438 2.67281,-1.84605 3.20982,-2.5746 0.55509,-0.75309 0.93413,-1.5219 1.50573,-3.05409 0.94262,-2.5268 2.73577,-8.38378 3.08262,-10.06885 l 0.17024,-0.82699 -0.32258,-0.26929 c-0.68012,-0.56779 -1.91905,-0.81612 -4.60907,-0.92385 -1.91863,-0.06605 -2.79153,0.404984 -2.98984,-1.12479 0,-0.26341 0.002,-0.26421 0.77344,-0.32385 0.42538,-0.0329 1.99687,-0.12245 3.49218,-0.19904 4.47803,-0.22934 6.65769,-0.46924 7.27751,-0.80095 0.29091,-0.1557 0.20158,-0.25655 -0.31657,-0.35741 -0.91642,-0.1784 -2.63856,-0.2149 -5.27344,-0.11179 -4.9508,0.19374 -5.85227,0.32637 -7.41293,1.09061 -1.00306,0.4912 -1.3202,0.80558 -1.38965,1.37758 -0.74216,5.171582 -1.11757,0.547531 -1.122,-2.03951 0.001,-3.36413 0.60216,-6.24589 1.86036,-8.91485 0.60231,-1.27766 1.12825,-2.06753 1.87074,-2.80952 0.93082,-0.93022 1.82055,-1.24413 3.75598,-1.32515 1.43137,-0.0599 1.92922,0.0353 2.09573,0.40076 0.0609,0.13357 0.19728,0.77716 0.30313,1.43019 0.2275,1.40351 0.37447,1.76968 0.97871,2.43847 0.66369,0.73456 3.2475,3.04915 4.16931,3.73488 2.22709,1.65671 3.00418,1.35934 6.11197,-2.3389 0.77406,-0.92111 1.49793,-1.70752 1.60863,-1.74759 1.78626,-0.217819 3.52628,-0.155285 5.29393,-0.60131 0.0491,-0.0609 0.11881,-0.2898 0.1549,-0.50866 l 0.0656,-0.39794 c-5.61481,-0.01604 -11.22963,-0.03197 -16.84444,-0.0479 l -0.0279,-0.64037 c-0.0562,-1.29082 0.4832,-2.27873 1.36884,-2.50689 0.60863,-0.15679 12.48895,-0.23567 14.32571,-0.0951 2.06845,0.15829 4.22815,0.80697 6.80549,2.04409 1.08787,0.52218 1.29245,0.65401 1.33541,0.86059 0.0279,0.13417 0.51642,3.34472 1.08559,7.13457 1.47431,9.81673 2.67251,17.71742 3.04842,20.10064 0.32394,2.0537 0.32397,2.0538 0.69364,2.53125 0.44936,0.58037 1.5163,1.52571 3.98979,3.535119 2.15855,1.75356 4.67915,3.85271 6.55066,5.45538 2.24892,1.92586 2.85307,2.30938 3.64365,2.31305 0.6519,0.003 1.21479,-0.2499 2.51653,-1.13069 3.41317,-2.30945 12.41747,-9.334899 15.35916,-11.983719 1.3112,-1.18065 1.3373,-1.34629 0.67575,-4.28856 -0.48803,-2.1705 -0.64951,-3.17863 -0.72523,-4.52725 -0.14088,-2.5096 0.4605,-4.42078 1.80799,-5.74568 0.7937,-0.78041 1.18698,-1.04189 2.77632,-1.84596 2.17841,-1.10208 3.08411,-1.32834 6.02017,-1.50395 2.03795,-0.12189 28.36045,-0.12497 30.64555,-0.003 2.29511,0.12192 2.37411,0.18159 1.71341,1.29424 -0.45242,0.76188 -2.00579,2.53896 -3.57149,4.08585 -2.64596,2.61418 -4.02315,3.62139 -7.01113,5.12761 -2.18206,1.09996 -1.20786,0.95657 -8.22947,1.21132 l -6.68108,0.24242 -1.66545,0.0605 -2.68953,2.91884 c-6.2418,6.77399 -9.84221,10.211169 -25.15144,24.011169 -8.78517,7.91912 -8.20551,7.36596 -8.42892,8.04342 -0.42444,1.28703 -0.86029,3.43073 -2.1149,10.40171 l -0.88974,4.94372 -0.28281,11.97816 c-0.55415,23.46958 -0.77933,30.84315 -1.03827,33.99844 -0.0763,0.92993 -0.13815,1.21194 -0.37415,1.70644 -0.62757,1.31495 -1.54912,1.32204 -2.21042,0.017 -0.29012,-0.57252 -0.46095,-1.32229 -0.6465,-2.8375 -0.28337,-2.31429 -0.63981,-3.31558 -1.40278,-3.94078 -0.54471,-0.44633 -1.66866,-0.95703 -2.4898,-1.13131 -0.99094,-0.2103 -2.70093,-0.42503 -3.02159,0.14702 -1.13608,1.90917 -1.03539,2.81585 -1.29072,5.15945 -0.41486,1.8887 -1.04232,1.93747 -2.7592,2.06618 -0.29247,-1.55099 -0.32717,-2.24598 -0.39292,-11.60589 l -0.0614,-8.74283 c-1.29684,-1.07475 -2.91629,-1.77751 -4.21585,-2.01027 -2.44741,-0.4204 -9.59387,-0.4204 -12.04128,0 -1.79506,0.40748 -2.98898,1.01729 -4.21585,2.01027 l -0.0614,8.74283 c-0.0657,9.35991 -0.17196,10.37477 -0.26666,11.73216 -2.28436,-0.0188 -2.32645,-0.6369 -2.88546,-2.19245 -0.17589,-1.45062 -0.19777,-2.68194 -0.37238,-4.16068 -0.33293,-0.86334 -0.93809,-1.19261 -2.3026,-1.2529 -1.15583,-0.051 -2.06069,0.12434 -3.03951,0.58919 -1.69973,0.80719 -2.12264,1.58665 -2.4904,4.59001 -0.25088,2.04863 -0.53794,2.94854 -1.12919,3.53979 -0.361,0.361 -0.85749,0.35444 -1.25468,-0.0166z" />
	
	<!-- eye -->
    <circle cx="374.67078" cy="71.843231" r="2.327009" />
	
	<g id="leftSide" fill="black">
	<!-- left tail feather -->
    <path d="m355.56952,258.21917 c-1.5781,-3.09959 -2.23221,-8.14099 -1.63602,-12.60934 0.24385,-1.82771 4.24727,-18.14533 6.28661,-25.62379 1.50979,-5.53652 2.62289,-8.8721 3.67288,-11.00642 0.51417,-1.04515 0.72225,-1.36221 1.23755,-1.88576 0.61042,-0.62019 0.63242,-0.63257 1.51007,-0.84984 0.7309,-0.18093 1.14284,-0.22105 2.29688,-0.22361 1.35222,-0.003 1.42671,0.007 1.93873,0.25836 0.43199,0.21214 0.57053,0.34009 0.7341,0.67799 0.42818,1.19245 -0.0432,2.65078 -0.18121,3.91039 -0.84885,7.747 -1.2127,12.01975 -2.02202,23.74389 -0.331,4.7951 -0.81703,10.8779 -0.9813,12.28125 -0.13008,1.11125 -1.33988,5.82866 -2.02844,7.9096 -0.95878,2.89755 -1.76145,4.3908 -3.03841,5.6526 -1.0579,1.08102 -2.25156,1.40765 -3.7212,1.76474 -1.83904,-0.8248 -3.32561,-2.57032 -4.06822,-4.00006z" />
	
	<!-- leftmost tail feather -->
    <path d="m344.25594,241.45006 c-0.70475,-0.18974 -0.95443,-0.33939 -1.44978,-0.86895 -1.85385,-1.98191 -2.72274,-5.57845 -2.31757,-9.59295 0.1978,-1.95979 0.82792,-4.17524 1.56933,-5.51775 0.54925,-0.99454 3.11798,-4.49544 5.34728,-7.2878 1.95656,-2.4507 3.37326,-4.05505 5.11735,-5.79514 1.7836,-1.77952 2.97926,-2.75452 3.99306,-3.25616 0.5998,-0.29679 0.62834,-0.30122 1.81691,-0.28219 1.43564,0.023 2.12058,0.14825 2.48444,0.45443 0.3166,0.2664 0.40598,0.61492 0.29003,1.13095 -0.0463,0.20622 -1.32459,3.1147 -2.84058,6.46325 -1.51599,3.34856 -3.47971,7.77579 -4.36382,9.83829 -0.88413,2.0625 -1.9034,4.31953 -2.26507,5.01562 -0.36167,0.6961 -1.18788,2.3625 -1.83603,3.70313 -2.20513,4.56107 -2.89523,5.5639 -4.13257,6.00526 -0.4495,0.16032 -0.7893,0.15792 -1.41298,-0.01z" />
	
	<!-- left fang -->
    <path d="m361.79177,207.91975 c-0.82801,-1.03233 -1.59092,-4.86761 -1.80638,-9.08106 -0.0538,-1.05333 -0.12027,-2.0628 -0.14755,-2.24328 -0.15964,-1.05571 -0.25977,-1.5 -0.33804,-1.5 -0.15145,0 -0.55488,1.00068 -0.66058,1.63848 -0.0785,0.47348 -0.0637,1.10426 0.0662,2.83676 0.22027,2.93734 0.22886,5.10245 0.0221,5.57945 -0.31741,0.73239 -0.92896,0.29344 -1.59266,-1.14314 -0.42314,-0.91587 -1.22254,-3.22391 -1.76083,-5.08394 -0.28544,-0.98627 -0.37095,-1.44412 -0.37095,-1.98605 0,-1.54402 0.63315,-3.381 1.71471,-4.97495 0.45724,-0.67385 1.62848,-1.91438 2.21545,-2.34653 0.40854,-0.30077 0.44903,-0.37397 0.84047,-1.51959 1.20135,-3.51601 1.84105,-4.9648 2.41443,-5.46824 0.36678,-0.32203 0.47124,-0.34054 0.76409,-0.13542 0.46601,0.32641 0.7812,1.3413 1.19183,3.83755 0.45742,2.78094 0.4272,2.69114 1.17611,3.49308 0.66817,0.71545 1.7833,2.29687 2.20125,3.12167 1.10155,2.17378 1.3896,4.24861 0.86065,6.19918 -0.36199,1.33485 -0.8449,2.5823 -1.57469,4.06767 -1.03597,2.10855 -1.5812,2.57448 -1.85721,1.58715 -0.10283,-0.36775 -0.1284,-1.23633 -0.11874,-4.03125 0.008,-2.35883 -0.0237,-3.72815 -0.0944,-4.05275 -0.11157,-0.51262 -0.62585,-1.5362 -0.8012,-1.59465 -0.15289,-0.051 -0.2881,1.00353 -0.39955,3.11615 -0.27485,5.2098 -0.6644,7.9906 -1.29354,9.2336 -0.26475,0.52306 -0.47559,0.66883 -0.65103,0.45011z" />
	
	<!-- left inner feather 1 -->
	<path d="m343.34374,173.10087 c-1.48091,-0.21575 -3.36516,-0.72625 -4.29658,-1.16406 -0.34715,-0.16319 -0.4378,-0.25364 -0.4378,-0.43686 0,-0.28724 0.47445,-1.02375 2.27998,-3.53936 1.74075,-2.42531 2.78216,-4.04311 3.2516,-5.05127 1.1982,-2.57316 2.89957,-8.52009 3.60896,-12.61456 0.54979,-3.17324 0.87945,-4.43491 1.36456,-5.22231 0.23394,-0.37971 0.54073,-0.50829 1.21284,-0.50829 0.63971,0 0.94011,0.20127 1.11945,0.75 0.28599,0.87509 0.38226,21.34233 0.10739,22.82813 -0.18322,0.99028 -1.13084,2.68934 -1.92362,3.44896 -0.51521,0.49364 -1.60235,1.04413 -2.56725,1.29995 -0.70235,0.1862 -2.99392,0.31538 -3.71953,0.20967z" />
	
	<!-- left inner feather 2 -->
    <path d="m330.92571,169.9075 c-1.19659,-0.25437 -3.22069,-1.59816 -3.53295,-2.3455 -0.36825,-0.88135 -0.0399,-1.5027 1.80742,-3.42026 1.77024,-1.83753 2.58291,-2.75578 3.13861,-3.54633 1.95602,-2.78267 5.03318,-10.07406 6.07919,-14.40474 0.63396,-2.62482 1.31009,-4.23925 2.23463,-5.33591 2.4137,-2.86301 5.4506,-1.7744 5.45564,1.95564 0.003,2.24453 -1.02581,8.92216 -1.7941,11.64439 -0.76916,2.72537 -2.57318,7.38599 -3.84214,9.92601 -1.58397,3.17055 -3.17929,4.69532 -5.56578,5.31965 -0.57307,0.14993 -1.10385,0.20327 -2.25,0.22613 -0.825,0.0164 -1.60374,0.008 -1.73052,-0.0191z" />
	
	<!-- left inner feather 3 -->
	<path d="m319.43748,164.34729 c-0.64705,-0.1422 -1.1593,-0.3585 -1.70185,-0.71863 -1.14611,-0.76075 -1.16238,-1.46594 -0.068,-2.95064 0.25157,-0.34128 1.36519,-1.67019 2.47473,-2.95313 2.73704,-3.16475 2.80364,-3.24616 3.44247,-4.2076 1.49242,-2.24604 4.41689,-7.78996 5.73668,-10.875 1.03081,-2.40956 2.09609,-4.51846 2.65031,-5.24677 0.94212,-1.238 1.66712,-1.58097 3.35632,-1.5877 1.18981,-0.005 1.54552,0.13139 1.88307,0.72068 0.22064,0.38515 0.22614,0.4455 0.21969,2.41066 -0.0148,4.494 -0.80075,7.16411 -3.93258,13.35938 -3.49426,6.91225 -5.89756,9.96075 -8.97699,11.38701 -1.16716,0.54058 -1.79861,0.67476 -3.34945,0.71174 -0.74765,0.0178 -1.52812,-0.005 -1.73437,-0.05z" />
	
	<!-- left inner feather 4 -->
    <path d="m311.84373,158.71667 c-1.37925,-0.21452 -3.23758,-0.90844 -3.8713,-1.4456 -0.40489,-0.34319 -0.67558,-0.88828 -0.67558,-1.36045 0,-0.85232 0.63058,-1.70988 3.304,-4.49329 5.76034,-5.99734 5.73835,-5.96892 8.94847,-11.57471 2.2261,-3.88742 3.04727,-5.07058 4.38877,-6.3234 1.24546,-1.16313 2.61754,-1.64946 3.7722,-1.33705 0.57899,0.15665 0.71053,0.45961 0.756,1.74137 0.0425,1.19848 -0.17996,2.71238 -0.69491,4.72829 -0.675,2.64252 -1.08289,3.53379 -3.71403,8.11546 -1.9095,3.32507 -2.65145,4.54635 -3.58816,5.90625 -1.57022,2.27961 -3.76761,4.84948 -4.6906,5.4857 -0.20769,0.14316 -0.60847,0.33023 -0.89062,0.41569 -0.61555,0.18645 -2.26347,0.26318 -3.04424,0.14174z" />
	
	<!-- left inner feather 5 -->
    <path d="m300.85189,152.96658 c-0.27051,-0.069 -0.73457,-0.28644 -1.03125,-0.48326 -1.12175,-0.74418 -2.76204,-2.69603 -3.03704,-3.61394 -0.094,-0.31374 -0.0876,-0.42561 0.0395,-0.69224 0.2794,-0.58591 2.04729,-1.94741 3.84689,-2.9626 1.236,-0.69725 2.29209,-1.55665 3.9618,-3.22396 1.83036,-1.82774 2.45589,-2.54621 5.1054,-5.86392 3.33532,-4.17652 5.04234,-6.17471 6.65071,-7.78522 1.09134,-1.09278 1.82133,-1.58888 2.69563,-1.83196 0.5514,-0.1533 0.60192,-0.15308 1.01411,0.005 0.51676,0.19736 0.70492,0.46788 1.02541,1.47426 0.6861,2.15438 0.46416,3.87413 -0.82652,6.40422 -0.87857,1.72223 -4.68769,7.32849 -7.35707,10.82812 -3.3767,4.42696 -4.74845,5.74733 -7.152,6.88411 -1.7752,0.83959 -3.70316,1.17633 -4.93561,0.86206z" />
	
	<!-- left outer feather 1 -->
	<path d="m276.03123,147.78227 c-9.75104,-0.22051 -17.91429,-0.7576 -21.98217,-1.44628 -5.65855,-0.95798 -13.68401,-3.87501 -18.79908,-6.83296 -2.144,-1.23983 -3.24631,-2.2796 -2.84364,-2.68228 0.30829,-0.30829 2.23316,-0.33789 24.94837,-0.38376 l 22.47972,-0.0454 1.00465,0.63939 c3.51254,2.2355 5.46176,4.44153 7.33412,8.30035 0.84297,1.73732 0.77503,2.14118 -0.40172,2.38778 -0.44551,0.0934 -1.78454,0.11813 -5.6465,0.10443 -2.78438,-0.01 -5.52656,-0.0285 -6.09375,-0.0412z" />
	
	<!-- left inner feather 6 -->
	<path d="m293.04965,145.29965 c-0.79856,-0.14578 -1.60153,-0.85457 -2.69186,-2.37611 -1.04221,-1.45439 -1.61044,-2.62705 -1.43334,-2.95799 0.11597,-0.21665 0.63122,-0.57397 2.17208,-1.50628 3.54886,-2.14726 10.12322,-6.95272 12.30989,-8.99777 1.16476,-1.08933 1.98005,-1.98406 3.15267,-3.45984 0.59408,-0.74765 1.39213,-1.64803 1.77345,-2.00083 1.53765,-1.42263 3.04748,-2.35515 3.99303,-2.46623 0.64297,-0.0755 1.37136,0.10892 1.72141,0.43593 0.2516,0.23502 0.28112,0.32139 0.28112,0.82209 0,1.86986 -0.77791,4.06135 -2.19982,6.19717 -1.57925,2.37215 -4.93288,6.12185 -9.48539,10.60562 -3.11014,3.06318 -4.63105,4.31178 -6.17416,5.06867 -1.14763,0.56291 -2.47028,0.80878 -3.41908,0.63557z" />
	
	<!-- left big inner feather -->
    <path d="m348.64177,140.75388 c-0.20042,-0.16865 -0.54243,-0.75993 -1.07098,-1.85156 -0.83485,-1.7243 -1.13705,-2.16553 -1.6219,-2.36812 -0.35945,-0.15018 -0.47433,-0.13031 -1.85515,0.3209 -0.73447,0.24 -1.20765,0.33881 -1.64418,0.34333 -0.92388,0.01 -1.36804,-0.30233 -3.40643,-2.39221 l -1.6994,-1.74231 -1.82812,-0.10477 c-2.83205,-0.1623 -3.44087,-0.44042 -4.26382,-1.94786 -0.59627,-1.09223 -0.78478,-1.34247 -1.15271,-1.53017 -0.33857,-0.17273 -0.99391,-0.32601 -3.24647,-0.75934 -1.18042,-0.22708 -2.08827,-0.51232 -2.34241,-0.73597 -0.29405,-0.25878 -0.67803,-1.17835 -0.95025,-2.27557 -0.4063,-1.63771 -0.54496,-1.72769 -3.09122,-2.0058 -1.6238,-0.17736 -2.26389,-0.296 -2.54116,-0.47102 -0.23729,-0.14977 -0.34052,-0.63349 -0.55957,-2.62237 -0.0852,-0.77344 -0.16066,-1.41145 -0.16771,-1.4178 -0.007,-0.006 -0.73,-0.0831 -1.60656,-0.17066 -2.30116,-0.22976 -3.16119,-0.42872 -3.59556,-0.83185 -0.29557,-0.27431 -0.9388,-1.5741 -1.37717,-2.78282 -0.19635,-0.5414 -0.38123,-1.0123 -0.41088,-1.04644 -0.0297,-0.0342 -0.60233,-0.11018 -1.27264,-0.16898 -1.80334,-0.1582 -2.79474,-0.42479 -3.11653,-0.83805 -0.21812,-0.28012 -0.58367,-1.64614 -0.81776,-3.0559 -0.3143,-1.89276 -0.46157,-2.35543 -0.88442,-2.77827 -0.43212,-0.43212 -0.95505,-0.58871 -2.63442,-0.78883 -0.69608,-0.0829 -1.29391,-0.17913 -1.32848,-0.21374 -0.0345,-0.0346 -0.0782,-0.90666 -0.0969,-1.93791 -0.0407,-2.24115 -0.11875,-2.53325 -0.70027,-2.62121 -1.20048,-0.18159 -3.02274,-0.90446 -3.22293,-1.2785 -0.22107,-0.41308 -0.26191,-1.194069 -0.13741,-2.627349 0.0689,-0.79293 0.11854,-1.44626 0.11032,-1.45184 -0.008,-0.006 -0.59093,-0.27009 -1.29496,-0.58779 -1.66911,-0.75322 -2.45332,-1.19168 -2.95477,-1.65206 -0.49914,-0.45826 -0.63092,-0.90748 -0.3157,-1.07618 0.42032,-0.22495 2.64133,-0.27882 11.58521,-0.28098 l 9.19094,-0.002 2.99655,2.74187 c3.47951,3.18375 16.97641,15.544009 26.40446,24.180789 3.59311,3.29154 6.55377,6.05822 6.57922,6.14817 0.0255,0.0899 0.0734,0.47995 0.1064,0.86667 0.10565,1.2366 0.51426,3.71101 1.13787,6.89063 0.87413,4.45693 1.01308,5.6036 0.78049,6.44105 -0.20296,0.73079 -1.08665,0.98449 -1.68259,0.48304z" />
	
	<!-- left inner feather 7 -->
	<path d="m284.98435,136.58282 c-1.62405,-0.14065 -2.80856,-0.92905 -3.49708,-2.32763 -0.27785,-0.5644 -0.29979,-0.67896 -0.29979,-1.56571 0,-0.92491 0.009,-0.96607 0.26812,-1.23661 0.19493,-0.20346 0.57878,-0.38626 1.40625,-0.66966 3.47645,-1.19069 10.78075,-4.6172 12.9611,-6.08017 1.25035,-0.83897 2.23559,-1.641 4.95545,-4.03399 3.68305,-3.24044 4.57223,-3.84547 5.76407,-3.92212 1.12718,-0.0725 1.64802,0.47329 1.62923,1.70728 -0.021,1.37903 -0.89156,2.96925 -2.51056,4.58592 -3.06289,3.05848 -9.99645,8.49121 -14.21485,11.13792 -3.55934,2.2332 -4.48129,2.5763 -6.46194,2.40477z" />
	
	<!-- left outer feather 2 -->
	<path d="m235.06248,133.67807 c-5.72424,-0.0645 -7.10769,-0.14972 -8.37848,-0.5159 -0.90976,-0.26216 -2.69627,-0.95537 -3.49206,-1.35501 -1.98119,-0.99495 -7.01539,-4.40761 -7.99991,-5.42311 -0.46114,-0.47564 -0.38765,-0.57841 0.48744,-0.68172 1.19723,-0.14134 17.35443,-0.25495 36.84167,-0.25906 l 19.52118,-0.004 0.2725,0.30469 c0.14987,0.16758 0.55655,0.64219 0.9037,1.05469 0.34716,0.4125 1.37516,1.56427 2.28445,2.55948 2.01227,2.20242 2.5656,2.97402 2.52516,3.52124 -0.0269,0.36309 -0.0478,0.38657 -0.45003,0.50501 -0.28147,0.0829 -1.46704,0.15276 -3.56249,0.20997 -3.8832,0.10601 -31.67838,0.16583 -38.95313,0.0838z" />
	
	<!-- left inner feather 9 -->
    <path d="m274.03563,119.06458 c-0.65721,-0.0932 -1.43389,-0.41651 -1.95752,-0.81492 -1.16047,-0.88296 -2.65229,-3.69148 -2.4304,-4.57551 0.0785,-0.31265 0.46295,-0.41279 3.6179,-0.94226 7.62068,-1.27893 10.65453,-2.18859 13.48753,-4.04403 1.29138,-0.84578 4.93078,-2.61311 7.60621,-3.69365 1.1626,-0.46954 1.8972,-0.54352 2.25318,-0.22692 0.37636,0.33474 0.55502,0.87249 0.55726,1.67723 0.003,1.08504 -0.15289,1.33967 -1.87201,3.05714 -3.03293,3.03004 -5.22733,4.53977 -10.07905,6.93432 -3.33124,1.64412 -4.76943,2.20354 -6.40585,2.49171 -0.96534,0.16999 -3.94211,0.25529 -4.77725,0.13689z" />
	
	<!-- left inner feather 8 -->
    <path d="m278.07677,127.7027 c-0.75937,-0.2624 -1.49513,-0.93656 -2.0786,-1.90456 -0.49636,-0.82349 -0.97543,-2.79133 -0.78259,-3.21459 0.22274,-0.48882 1.05976,-0.72887 3.11252,-0.89261 2.22518,-0.17751 4.97164,-1.12787 8.8125,-3.04942 2.73473,-1.36815 4.87032,-2.68614 6.98438,-4.31046 2.40566,-1.84835 5.13085,-3.42331 6.51259,-3.76378 0.76835,-0.18933 1.48207,-0.12229 1.71397,0.161 0.19515,0.23838 0.2254,1.24798 0.0582,1.94281 -0.30106,1.25118 -1.4497,3.06214 -2.80305,4.41937 -2.22052,2.22686 -8.32376,6.5302 -12.27859,8.65754 -1.16141,0.62474 -2.96958,1.42503 -3.84326,1.70103 -1.35952,0.42948 -4.47626,0.57567 -5.40807,0.25367z" />
	
	<!-- left outer feather 3 -->
	<path d="m224.3281,122.71475 c-7.32881,-0.0551 -8.96527,-0.0914 -9.98364,-0.22145 -2.28793,-0.29208 -3.56105,-0.73269 -6.65698,-2.30388 -2.90309,-1.47332 -4.05102,-2.20683 -4.90679,-3.13533 -0.61517,-0.66745 -0.77815,-1.11416 -0.74546,-2.04331 l 0.0273,-0.77474 32.07945,-0.0236 32.07946,-0.0236 0.55823,0.77357 c0.78694,1.09051 1.42607,2.07222 1.84642,2.83607 0.60153,1.0931 1.02402,1.6591 1.69889,2.27595 1.40458,1.28382 1.4277,1.30955 1.49389,1.66237 0.0951,0.50718 -0.11565,0.66925 -1.03759,0.79773 -0.49584,0.0691 -5.07072,0.13173 -13.5,0.18483 -14.39709,0.0907 -20.39079,0.0898 -32.95313,-0.005z" />
	
	<!-- left outer feather 4 -->
	<path d="m206.65623,111.56512 c-1.03782,-0.055 -1.28456,-0.10877 -3.18419,-0.69325 -3.28636,-1.01115 -5.02742,-1.75723 -6.67952,-2.8623 -1.67558,-1.12077 -2.93316,-2.71329 -2.93316,-3.71436 0,-0.33308 0.2785,-0.41324 1.82603,-0.52556 1.4815,-0.10752 53.8116,-0.12574 62.04049,-0.0216 l 4.94465,0.0626 0.57955,0.89463 c1.14925,1.77406 2.27736,4.81692 2.4386,6.57764 l 0.03,0.32813 -28.96875,0.007 c-15.93282,0.004 -29.475,-0.02 -30.09375,-0.0528z" />
	
	<!-- left inner feather 10 -->
	<path d="m271.81248,109.80154 c-1.17417,-0.4402 -2.93669,-1.5826 -3.8512,-2.4962 -0.96067,-0.95972 -1.192,-1.48872 -1.24039,-2.83663 l -0.0376,-1.04858 0.31462,-0.0475 c0.17303,-0.0261 1.3693,-0.0933 2.65836,-0.14926 1.28906,-0.056 2.76562,-0.14448 3.28125,-0.19666 3.45023,-0.34914 6.97369,-1.13679 10.125,-2.26338 1.18646,-0.42415 2.04707,-0.784739 5.34652,-2.240159 1.83627,-0.81 3.16235,-1.01432 3.69788,-0.56977 0.36875,0.30613 0.49451,1.8995 0.23632,2.994519 -0.44847,1.9022 -1.82277,3.22911 -5.26373,5.08227 -2.68415,1.44558 -5.4222,2.51943 -8.12245,3.18559 -2.03063,0.50096 -3.17745,0.66264 -5.08204,0.71645 -1.39965,0.0395 -1.65083,0.0236 -2.0625,-0.1307z" />
	
	<!-- left outer feather 5 -->
	<path d="m203.37498,100.87065 c-4.84797,-0.0862 -5.75062,-0.16718 -7.17187,-0.64365 -3.30377,-1.107589 -6.42979,-3.262259 -8.66577,-5.973039 -0.58831,-0.71324 -0.64283,-0.9215 -0.26392,-1.00813 0.81167,-0.18556 17.61652,-0.25699 42.99695,-0.18276 l 27.08287,0.0792 1.95523,3.79687 c1.07539,2.08829 1.95566,3.849609 1.95619,3.914069 0.001,0.0935 -5.45742,0.11401 -27.02249,0.10146 -14.86289,-0.009 -28.75313,-0.0464 -30.86719,-0.084z" />
	
	<!-- left inner feather 11 -->
    <path d="m265.74716,100.84327 c-1.47164,-0.40971 -2.91175,-2.285019 -3.41234,-4.443519 -0.1447,-0.62396 -0.4106,-2.64987 -0.41215,-3.14027 l -10e-4,-0.25782 11.46094,0.002 c10.78544,0.002 13.39552,0.0523 13.96547,0.26897 0.28901,0.10988 0.44859,0.52196 0.44859,1.15842 0,0.9066 -0.42402,1.40567 -1.76293,2.07503 -2.39775,1.19868 -8.96522,3.45311 -12.24017,4.201709 -0.76535,0.17495 -1.21463,0.19904 -4.23128,0.22684 -2.57198,0.0237 -3.47976,0.002 -3.81532,-0.0915z" />
	
	<!-- left middle feather -->
    <path d="m261.68748,89.339731 c-0.97969,-0.0385 -2.05546,-0.11829 -2.39062,-0.17721 -1.98428,-0.34886 -4.57568,-1.64227 -6.70313,-3.34564 -1.31961,-1.05657 -4.24071,-3.97184 -5.00192,-4.99196 -0.66809,-0.89529 -1.28792,-2.0553 -1.16428,-2.17893 0.0469,-0.0469 7.95788,-0.0721 18.35746,-0.0586 l 18.27516,0.0237 0.65742,1.13452 c0.36157,0.62398 0.87062,1.42563 1.1312,1.78145 1.34181,1.83222 4.28653,4.91484 5.80746,6.07943 1.00441,0.76908 1.54687,1.267 1.54687,1.41985 0,0.0614 -0.0724,0.13934 -0.16081,0.17328 -0.53177,0.20406 -25.76895,0.3206 -30.35481,0.14017z" />
	
	<!-- left outer feather 6 -->
	<path d="m211.48436,89.052261 c-15.6782,-0.0759 -16.49544,-0.11748 -19.20922,-0.97744 -3.76666,-1.19359 -7.22386,-3.39648 -9.06666,-5.77716 -0.78629,-1.01578 -1.53662,-2.70635 -1.53662,-3.46212 l 0,-0.27138 29.43508,0 29.4351,0 0.63521,0.54975 c0.86232,0.74628 2.28224,2.22873 3.64897,3.80963 1.39462,1.61317 3.28295,3.46632 4.34564,4.26469 1.15178,0.86532 1.78125,1.41277 1.78125,1.54916 0,0.0656 -0.0738,0.15096 -0.16407,0.18976 -0.0902,0.0388 -5.01562,0.0857 -10.94531,0.10418 -5.92969,0.0185 -12.00469,0.044 -13.5,0.0567 -1.49531,0.0127 -8.18203,-0.004 -14.85937,-0.0357z" />
	
	</g>
	
	<use xlink:href="#leftSide" transform="scale(-1,1) translate(-760 0)"/>
	
	</g>
</svg>
