<?xml version="1.0" standalone="no"?><!DOCTYPE svg PUBLIC "-//W3C//DTD SVG 1.1//EN" "http://www.w3.org/Graphics/SVG/1.1/DTD/svg11.dtd"><svg xmlns="http://www.w3.org/2000/svg" xmlns:xlink="http://www.w3.org/1999/xlink" version="1.1" width="1080" height="540">
<desc>European flag</desc>
<defs>
<g id="s">
	<g id="c">
		<path id="t" d="M0,0v1h0.5z" transform="translate(0,-1)rotate(18)"/>
		<use xlink:href="#t" transform="scale(-1,1)"/>
	</g>
	<g id="a">
		<use xlink:href="#c" transform="rotate(72)"/>
		<use xlink:href="#c" transform="rotate(144)"/>
	</g>
	<use xlink:href="#a" transform="scale(-1,1)"/>
</g>
</defs>


<g fill="#fc0" transform="scale(20)" id="ringStar">
	<use xlink:href="#s" y="-6"/>
	<use xlink:href="#s" y="6"/>
	<g id="l">
		<use xlink:href="#s" x="-6"/>
		<use xlink:href="#s" transform="rotate(150)translate(0,6)rotate(66)"/>
		<use xlink:href="#s" transform="rotate(120)translate(0,6)rotate(24)"/>
		<use xlink:href="#s" transform="rotate(60)translate(0,6)rotate(12)"/>
		<use xlink:href="#s" transform="rotate(30)translate(0,6)rotate(42)"/>
	</g>
	<use xlink:href="#l" transform="scale(-1,1)"/>
</g>
<rect fill="#039" width="1080" height="540"/>
<rect fill="#fc0" y="74" x="160" height="16" width="1080" />
<rect fill="#fc0" y="97" x="160" height="32.5" width="1080" />
<rect fill="#fc0" y="136.5" x="160" height="16" width="1080" />
<rect fill="#fc0" y="450" x="160" height="16" width="1080" />
<rect fill="#fc0" y="410.5" x="160" height="32.5" width="1080" />
<rect fill="#fc0" y="387.5" x="160" height="16" width="1080" />
<rect fill="#fc0" y="253.75" x="160" height="32.5" width="1080" />
<rect fill="#fc0" y="230.75" x="160" height="16" width="1080" />
<rect fill="#fc0" y="293.25" x="160" height="16" width="1080" />


<path d="M480,270 150,50, 150,490" fill="#039"/>
<use xlink:href="#ringStar" x="150" y="270" />
</svg>