<?xml version="1.0" encoding="UTF-8" standalone="no"?>
<svg xmlns="http://www.w3.org/2000/svg"
    xmlns:xlink="http://www.w3.org/1999/xlink"
    height="600"
    width="900"
    version="1.1"
    viewBox="0 0 900 600"
>
    <!-- background: "#5f8dd3" -->
    <!-- between star tesselation: "#3771c8" -->
    <!-- stars tesselation: "#afc6e9" -->
    <!-- stars: "#fc0" -->
    <rect
        height="600"
        width="900"
        fill="#5f8dd3"
    />
    <g id="star" transform="translate(450, 300) scale(30, 30)">
        <path
            d="
                M 0.5773502691722515 0
                L 0.8660254037844387 0.5
                L 0.2886751345861258 0.5
                L 6.123233995736766e-17 1
                L -0.28867513458612565 0.5
                L -0.8660254037844385 0.5
                L -0.5773502691722515 3.271000407562922e-16
                L -0.866025403784439 -0.5
                L -0.28867513458612604 -0.5
                L -1.8369701987210297e-16 -1
                L 0.2886751345861258 -0.5
                L 0.8660254037844388 -0.5
            "
        />
    </g>

    <use xlink:href="#star" fill="#afc6e9" />

    <g id="firstCircle" fill="#afc6e9">
        <use x="0" y="-90" xlink:href="#star" />
        <use x="-52" y="-90" xlink:href="#star" />
        <use x="-78" y="-45" xlink:href="#star" />
        <use x="-104" y="0" xlink:href="#star" />
        <use x="-78" y="45" xlink:href="#star" />
        <use x="-52" y="90" xlink:href="#star" />
        <use x="0" y="90" xlink:href="#star" />
        <use x="52" y="90" xlink:href="#star" />
        <use x="78" y="45" xlink:href="#star" />
        <use x="104" y="0" xlink:href="#star" />
        <use x="78" y="-45" xlink:href="#star" />
        <use x="52" y="-90" xlink:href="#star" />
    </g>
    <g id="secondCircle" fill="#afc6e9">
        <use x="208" y="0" xlink:href="#star" fill="#fc0" />
        <use x="182" y="-45" xlink:href="#star" />
        <use x="156" y="-90" xlink:href="#star" fill="#fc0" />
        <use x="130" y="-135" xlink:href="#star" />
        <use x="104" y="-180" xlink:href="#star" fill="#fc0" />
        <use x="52" y="-180" xlink:href="#star" />
        <use x="0" y="-180" xlink:href="#star" fill="#fc0" />
        <use x="-52" y="-180" xlink:href="#star" />
        <use x="-104" y="-180" xlink:href="#star" fill="#fc0" />
        <use x="-130" y="-135" xlink:href="#star" />
        <use x="-156" y="-90" xlink:href="#star" fill="#fc0" />
        <use x="-182" y="-45" xlink:href="#star" />
        <use x="-208" y="0" xlink:href="#star" fill="#fc0" />
        <use x="182" y="45" xlink:href="#star" />
        <use x="156" y="90" xlink:href="#star" fill="#fc0" />
        <use x="130" y="135" xlink:href="#star" />
        <use x="104" y="180" xlink:href="#star" fill="#fc0" />
        <use x="52" y="180" xlink:href="#star" />
        <use x="0" y="180" xlink:href="#star" fill="#fc0" />
        <use x="-52" y="180" xlink:href="#star" />
        <use x="-104" y="180" xlink:href="#star" fill="#fc0" />
        <use x="-130" y="135" xlink:href="#star" />
        <use x="-156" y="90" xlink:href="#star" fill="#fc0" />
        <use x="-182" y="45" xlink:href="#star" />
    </g>
    <g id="thirdCircle" fill="#afc6e9">
        <use x="312" y="0" xlink:href="#star" />
        <use x="286" y="-45" xlink:href="#star" />
        <use x="260" y="-90" xlink:href="#star" />
        <use x="234" y="-135" xlink:href="#star" />
        <use x="208" y="-180" xlink:href="#star" />
        <use x="182" y="-225" xlink:href="#star" />
        <use x="156" y="-270" xlink:href="#star" />
        <use x="104" y="-270" xlink:href="#star" />
        <use x="52" y="-270" xlink:href="#star" />
        <use x="0" y="-270" xlink:href="#star" />
        <use x="-52" y="-270" xlink:href="#star" />
        <use x="-104" y="-270" xlink:href="#star" />
        <use x="-156" y="-270" xlink:href="#star" />
        <use x="-182" y="-225" xlink:href="#star" />
        <use x="-208" y="-180" xlink:href="#star" />
        <use x="-234" y="-135" xlink:href="#star" />
        <use x="-260" y="-90" xlink:href="#star" />
        <use x="-286" y="-45" xlink:href="#star" />
        <use x="-312" y="0" xlink:href="#star" />
        <use x="286" y="45" xlink:href="#star" />
        <use x="260" y="90" xlink:href="#star" />
        <use x="234" y="135" xlink:href="#star" />
        <use x="208" y="180" xlink:href="#star" />
        <use x="182" y="225" xlink:href="#star" />
        <use x="156" y="270" xlink:href="#star" />
        <use x="104" y="270" xlink:href="#star" />
        <use x="52" y="270" xlink:href="#star" />
        <use x="0" y="270" xlink:href="#star" />
        <use x="-52" y="270" xlink:href="#star" />
        <use x="-104" y="270" xlink:href="#star" />
        <use x="-156" y="270" xlink:href="#star" />
        <use x="-182" y="225" xlink:href="#star" />
        <use x="-208" y="180" xlink:href="#star" />
        <use x="-234" y="135" xlink:href="#star" />
        <use x="-260" y="90" xlink:href="#star" />
        <use x="-286" y="45" xlink:href="#star" />
    </g>
    <g id="fourthWall" fill="#afc6e9">
        <use x="416" y="0" xlink:href="#star" />
        <use x="390" y="-45" xlink:href="#star" />
        <use x="364" y="-90" xlink:href="#star" />
        <use x="338" y="-135" xlink:href="#star" />
        <use x="312" y="-180" xlink:href="#star" />
        <use x="286" y="-225" xlink:href="#star" />
        <use x="260" y="-270" xlink:href="#star" />
        <use x="234" y="-315" xlink:href="#star" />
        <use x="390" y="45" xlink:href="#star" />
        <use x="364" y="90" xlink:href="#star" />
        <use x="338" y="135" xlink:href="#star" />
        <use x="312" y="180" xlink:href="#star" />
        <use x="286" y="225" xlink:href="#star" />
        <use x="260" y="270" xlink:href="#star" />
        <use x="234" y="315" xlink:href="#star" />

        <use x="-416" y="0" xlink:href="#star" />
        <use x="-390" y="-45" xlink:href="#star" />
        <use x="-364" y="-90" xlink:href="#star" />
        <use x="-338" y="-135" xlink:href="#star" />
        <use x="-312" y="-180" xlink:href="#star" />
        <use x="-286" y="-225" xlink:href="#star" />
        <use x="-260" y="-270" xlink:href="#star" />
        <use x="-234" y="-315" xlink:href="#star" />
        <use x="-390" y="45" xlink:href="#star" />
        <use x="-364" y="90" xlink:href="#star" />
        <use x="-338" y="135" xlink:href="#star" />
        <use x="-312" y="180" xlink:href="#star" />
        <use x="-286" y="225" xlink:href="#star" />
        <use x="-260" y="270" xlink:href="#star" />
        <use x="-234" y="315" xlink:href="#star" />
    </g>
    <g id="fifthWall" fill="#afc6e9">
        <use x="504" y="45" xlink:href="#star" />
        <use x="468" y="90" xlink:href="#star" />
        <use x="442" y="135" xlink:href="#star" />
        <use x="416" y="180" xlink:href="#star" />
        <use x="390" y="225" xlink:href="#star" />
        <use x="364" y="270" xlink:href="#star" />
        <use x="338" y="315" xlink:href="#star" />
        <use x="504" y="-45" xlink:href="#star" />
        <use x="468" y="-90" xlink:href="#star" />
        <use x="442" y="-135" xlink:href="#star" />
        <use x="416" y="-180" xlink:href="#star" />
        <use x="390" y="-225" xlink:href="#star" />
        <use x="364" y="-270" xlink:href="#star" />
        <use x="338" y="-315" xlink:href="#star" />

        <use x="-504" y="45" xlink:href="#star" />
        <use x="-468" y="90" xlink:href="#star" />
        <use x="-442" y="135" xlink:href="#star" />
        <use x="-416" y="180" xlink:href="#star" />
        <use x="-390" y="225" xlink:href="#star" />
        <use x="-364" y="270" xlink:href="#star" />
        <use x="-338" y="315" xlink:href="#star" />
        <use x="-504" y="-45" xlink:href="#star" />
        <use x="-468" y="-90" xlink:href="#star" />
        <use x="-442" y="-135" xlink:href="#star" />
        <use x="-416" y="-180" xlink:href="#star" />
        <use x="-390" y="-225" xlink:href="#star" />
        <use x="-364" y="-270" xlink:href="#star" />
        <use x="-338" y="-315" xlink:href="#star" />
    </g>
</svg>
