<?xml version="1.0" encoding="UTF-8" standalone="no"?>
<svg
    xmlns:svg="http://www.w3.org/2000/svg"
    xmlns="http://www.w3.org/2000/svg"
    width="500px"
    height="500px"
    viewBox="-50 -50 100 100"
    version="1.1">
    <g id="marine" fill="#2059be">
        <path id="wing"
            d="
                M0,0
                a 28 40 0 0 0 -45 0
                a 28 40 0 0 1 40 -4
                Q -2 0 -1 5
                l 0,3
                l 1,0
            "
        />
        <path id="horn"
            d="
                M -30,5
                a 1 1 0 0 0 -5 -0.5
                a 3 3 0 0 1 7 0
                a 3 3 0 0 1 -7 0
                a 1 1 0 0 0 5 0

                l 0,-1
                l 30,0
                l 0,2
                l -30,0
            "
        />
    </g>
    <use href="#marine" transform="scale(-1,1)" />
</svg>
