<?xml version="1.0" encoding="UTF-8"?>
<svg xmlns="http://www.w3.org/2000/svg"
	version="1.1" width="550px" height="550px" viewBox="-300 -300 600 600">
	<!-- Rulers -->
	<!--
	<g id="hexagon">
		<path d="
				M0,300
				L259.80762113533159402911695122588,150
				L259.80762113533159402911695122588,-150
				L0,-300
				L-259.80762113533159402911695122588,-150
				L-259.80762113533159402911695122588,150
				z
			"
		/>
	</g>
	<use href="#hexagon" fill="rgba(0,255,255,0.5)"/>
	<use href="#hexagon" fill="rgba(255,255,255,0.5)" transform="scale(0.77)"/>
	<use href="#hexagon" fill="rgba(255,255,255,0.5)" transform="scale(0.5385)"/>
	-->

	<g id="logo">
		<g id="d">
			<path
				d="
					M4,297.7
					L259.80762113533159402911695122588,150
					L259.80762113533159402911695122588,-150
					L4,-297.7
					z

					M70,-190.55
					L200,-115.5
					L200,115.5
					L70,190.55
					L70,-190.55
					z

					M41,-207.32
					L41,207.32
					L33,211.96
					L33,-211.96
					z
				"
			/>
		</g>
		<use href="#d" transform="scale(-1,1)" />
		<g id="g">
			<path
				d="


					M139.9,80.8
					L78,116.5
					L78,47.044
					L79.9,46
					L79.9,32
					L78,32
					L78,-28
					L139.9,-28
					z

					M139.86,-80.8
					L78,-116.5
					L78,-45
					z

					M-139.9,80.8
					L-78,116.5
					L-78,47.044
					L-79.80762113533159402911695122588,46
					L-79.80762113533159402911695122588,-46
					L-78,-47.044
					L-78,-116.515
					L-139.9,-80.8
					z
				"
			/>
		</g>
	</g>
</svg>
