<?xml version="1.0" encoding="UTF-8" standalone="no"?>
<svg
    xmlns:svg="http://www.w3.org/2000/svg"
    xmlns="http://www.w3.org/2000/svg"
    width="500px"
    height="500px"
    viewBox="-50 -50 100 100"
    version="1.1">
    <g id="gc" transform="translate(0,-20)">
        <path
            d="
                M 32.6,0
                l 7,0
                a 20 20 0 1 0 0 7
                l -7,0
                a 13 13 0 1 1 0 -7
            "
        />
        <path
            d="
                M -7.4,0
                l 7,0
                a 20 20 0 1 0 0 7
                l -7,0
                a 13 13 0 1 1 0 -7
            "
        />
        <path
            d="
                M -20.4,4
                l 16.5,0
                l 0,19
            "
            stroke-width="7"
            fill="none"
            stroke="black"
        />
    </g>
    <path id="stripes"
        d="
            M -5,8
            l -5,40
            l -5,0
            l 5,-40

            m -2,0
            l -10,40
            l -5,0
            l 10,-40

            m -2,0
            l -15,40
            l -5,0
            l 15,-40
        "
    />
    <use href="#stripes" transform="scale(-1,1)" />

    <path id="centerPiece"
        d="
            M -32,17
            c 6,0 6,-12 0,-12
            a 10 10 0 0 0 -10 10
            a 20 10 0 0 0 84 0
            a 10 10 0 0 0 -10 -10
            c -6,0 -6,12 0,12
            c 8,0.5 7,3 -2,5
            q -25,5 -64,0
            l -3,0
            l -2,-3
            l 1,-4
            l 4,-2
            z
        "
        fill="black"
    />
    <use href="#centerPiece" transform="scale(-1,1)" />
</svg>
