<?xml version="1.0" encoding="UTF-8" standalone="no"?>
<svg
    xmlns:svg="http://www.w3.org/2000/svg"
    xmlns="http://www.w3.org/2000/svg"
    width="400px"
    height="200px"
    viewBox="0 0 200 100"
    version="1.1">
    <defs>
        <pattern id="pattern1" width="1" height="1" patternUnits="userSpaceOnUse" >
            <rect width="11" height="11" fill="#36446A" />
            <path d="M0,0 L0,0.1 L0.1,0.4" stroke="#47557B" fill="none"/>
        </pattern>
        <pattern id="pattern2" width="1" height="1" patternUnits="userSpaceOnUse" >
            <rect width="11" height="11" fill="#36446A" />
            <path d="M0,0 L0,0.1 L0.3,0.2" stroke="#47557B" fill="none"/>
        </pattern>
    </defs>

    <g id="coupon" fill="url(#pattern1)">
        <path
            d="
                M10,0
                L190,0
                a 10 10 0 0 0 10 10
                L200,90
                a 10 10 0 0 0 -10 10
                L10,100
                a 10 10 0 0 0 -10 -10
                L0,10
                a 10 10 0 0 0 10 -10
            "
        />
        <path fill="url(#pattern2)" stroke="#fff"
            d="
                M15,5
                L185,5
                a 10 10 0 0 0 10 10
                L195,85
                a 10 10 0 0 0 -10 10
                L15,95
                a 10 10 0 0 0 -10 -10
                L5,15
                a 10 10 0 0 0 10 -10
                z
            "
        />
    </g>
</svg>
