<?xml version="1.0" encoding="UTF-8" standalone="no"?>
<svg
   xmlns="http://www.w3.org/2000/svg"
   version="1.0"
   width="800px"
   height="800px"
   viewBox="-60 -60 120 120"
>
   <rect height="120" width="120" x="-60" y="-60" fill="#111"/>
   <g stroke-width="9" fill="none" transform="translate(-7.3,0)">
        <path id="dB" d="
            M0,0
            l12.5,25
            l2.5,0
            c50,0,50,-25,0,-25
            l-15,0
        " stroke="rgb(210,210,210)"/>
        <path id="dB" d="
            M0,-25
            c50,0,50,25,0,25
            c-50,0,-50,25,0,25
            m12.5,0 l-25,-50
        " stroke="rgb(210,210,210)"/>
        <path id="dB" d="
            M0,-25
            c50,0,50,25,0,25
            c-50,0,-50,25,0,25
            m12.5,0
            l-50,-100
        " stroke="rgb(210,210,210)"/>
        <path d="M6.2,-10 l-25,-50" stroke="#111"/>
        <path d="M18.8,60 l-25,-50" stroke="#111"/>
   </g>
    <rect height="50" width="120" x="-60" y="-79.5" fill="#111" stroke="none"/>
</svg>
