<?xml version="1.0" encoding="UTF-8" standalone="no"?>
<svg
   xmlns="http://www.w3.org/2000/svg"
   version="1.0"
   width="800px"
   height="800px"
   viewBox="-50 0 100 100"
>
   <rect height="100" width="100" x="-50" fill="#039"/>
   <g transform="rotate(-90) translate(-100, -50)">
      <path
         d="
            M50,20
            l0,60
            a 30,30 0 1,1 0,-60
            a 25,15 0 1,1 0,30
            a 30,15 0 1,1 0,30"
         fill="none"
         stroke="#fdfdfd"
         stroke-width="13"
         stroke-linejoin="round"
      />
   </g>
   <g transform="rotate(-90) translate(-100, -50)">
      <path
         d="
            M50,20
            l0,60
            a 30,30 0 1,1 0,-60
            a 25,15 0 1,1 0,30
            a 30,15 0 1,1 0,30"
         fill="none"
         stroke="#fc0"
         stroke-width="7"
         stroke-linejoin="round"
      />
   </g>
</svg>
