<?xml version="1.0" standalone="no"?>
<svg
    xmlns="http://www.w3.org/2000/svg"
    xmlns:xlink="http://www.w3.org/1999/xlink"
    version="1.1"
    width="1000" height="600"
    viewBox="0 0 1000 600"
>
    <defs>
        <g id="s" transform="scale(21)">
            <g id="c">
                <path id="t" d="M0,0v1h0.5z" transform="translate(0,-1)rotate(18)"/>
                <use xlink:href="#t" transform="scale(-1,1)"/>
            </g>
            <g id="a">
                <use xlink:href="#c" transform="rotate(72)"/>
                <use xlink:href="#c" transform="rotate(144)"/>
            </g>
            <use xlink:href="#a" transform="scale(-1,1)"/>
        </g>
    </defs>

    <rect fill="#3044b5" x="400" width="600" height="120" />
    <rect fill="#ffffff" x="400" width="600" height="30" y="120" />
    <rect fill="#ffc61e" x="400" width="600" height="300" y="150" />
    <rect fill="#ffffff" x="400" width="600" height="30" y="450" />
    <rect fill="#d81e05" x="400" width="600" height="120" y="480" />

    <rect fill="#039" width="400" height="600"/>
    
    <g fill="#fc0" transform="translate(200,300)">
        <use xlink:href="#s" y="-130"/>
        <use xlink:href="#s" y="130"/>
        <g id="l">
            <use xlink:href="#s" x="-130"/>
            <use xlink:href="#s" transform="rotate(150)translate(0,130)rotate(66)"/>
            <use xlink:href="#s" transform="rotate(120)translate(0,130)rotate(24)"/>
            <use xlink:href="#s" transform="rotate(60)translate(0,130)rotate(12)"/>
            <use xlink:href="#s" transform="rotate(30)translate(0,130)rotate(42)"/>
        </g>
        <use xlink:href="#l" transform="scale(-1,1)"/>
    </g>
</svg>
