<?xml version="1.0" encoding="UTF-8" standalone="no"?>
<svg
   xmlns="http://www.w3.org/2000/svg"
   version="1.0"
   width="800px"
   height="800px"
   viewBox="-50 -50 100 100"
>
   <rect height="100" width="100" x="-50" y="-50" fill="#111"/>
   <g stroke-width="4.5" fill="none">
    <path id="dB" d="
            M0,-25
            c50,0,50,25,0,25
            c-50,0,-50,25,0,25
            m10,0 l2.5,0 l-25,-50
            l2.5,0
            m22.5,50
            c50,0,50,-25,0,-25
            l-10,0
        " sstroke="rgba(255,255,255,0.5)"/>
        <path id="dP" d="
            M0,-25
            c50,0,50,25,0,25
            c-50,0,-50,25,0,25
            m10,0
            l2.5,0
            l-25,-50
            l2.5,0
        " sstroke="rgba(255,55,25,0.5)"/>
        <path id="lowB" d="M12.5,25 l15,0 a13,10,0,1,0,-3,-28" stroke="rgba(0,255,255,0.5)"/>
        <path id="dP" d="
            M0,-25
            c50,0,50,25,0,25
            c-50,0,-50,25,0,25
            m9,0
            l3.5,0
            l-25,-50
            l3.5,0
        " stroke="#111" stroke-width="20"/>
        <path id="dP" d="
            M0,-25
            c50,0,50,25,0,25
            c-50,0,-50,25,0,25
            m9,0
            l3.5,0
            l-25,-50
            l3.5,0
        " stroke="rgba(0,255,255,0.5)"/>
        <path d="
            M0,-25 l0,50
            M37.5,-25 l0,50
            M-37.5,-25 l0,50
        " stroke="yellow" stroke-width="0.1">
   </g>
</svg>
