<?xml version="1.0" standalone="no"?><!DOCTYPE svg PUBLIC "-//W3C//DTD SVG 1.1//EN" "http://www.w3.org/Graphics/SVG/1.1/DTD/svg11.dtd"><svg xmlns="http://www.w3.org/2000/svg" xmlns:xlink="http://www.w3.org/1999/xlink" version="1.1" width="1300" height="500">
<desc>European flag</desc>
<defs>
<g id="s">
	<g id="c">
		<path id="t" d="M0,0v1h0.5z" transform="translate(0,-1)rotate(18)"/>
		<use xlink:href="#t" transform="scale(-1,1)"/>
	</g>
	<g id="a">
		<use xlink:href="#c" transform="rotate(72)"/>
		<use xlink:href="#c" transform="rotate(144)"/>
	</g>
	<use xlink:href="#a" transform="scale(-1,1)"/>
</g>
</defs>


<g fill="#fc0" transform="scale(25)" id="ringStar">
	<use xlink:href="#s" y="-6"/>
	<use xlink:href="#s" y="6"/>
	<g id="l">
		<use xlink:href="#s" x="-6"/>
		<use xlink:href="#s" transform="rotate(150)translate(0,6)rotate(66)"/>
		<use xlink:href="#s" transform="rotate(120)translate(0,6)rotate(24)"/>
		<use xlink:href="#s" transform="rotate(60)translate(0,6)rotate(12)"/>
		<use xlink:href="#s" transform="rotate(30)translate(0,6)rotate(42)"/>
	</g>
	<use xlink:href="#l" transform="scale(-1,1)"/>
</g>
<rect fill="#039" width="1300" height="500"/>

<rect y="215" height="70" width="1300" fill="#fc0" />
<rect y="125" height="70" width="1300" fill="#fc0" />
<rect y="305" height="70" width="1300" fill="#fc0" />
<path d="M1300,125 L1300,500 L 975,500" fill="#039" />
<path d="M0,125 L0,500 L 325,500" fill="#039" />
<circle cx="650" cy="250" r="200" fill="#039" />
<use xlink:href="#ringStar" x="650" y="250" />
</svg>