<?xml version="1.0" standalone="no"?><!DOCTYPE svg PUBLIC "-//W3C//DTD SVG 1.1//EN" "http://www.w3.org/Graphics/SVG/1.1/DTD/svg11.dtd"><svg xmlns="http://www.w3.org/2000/svg" xmlns:xlink="http://www.w3.org/1999/xlink" version="1.1" width="1080" height="540">
<desc>European flag</desc>
<defs>
<g id="s">
	<g id="c">
		<path id="t" d="M0,0v1h0.5z" transform="translate(0,-1)rotate(18)"/>
		<use xlink:href="#t" transform="scale(-1,1)"/>
	</g>
	<g id="a">
		<use xlink:href="#c" transform="rotate(72)"/>
		<use xlink:href="#c" transform="rotate(144)"/>
	</g>
	<use xlink:href="#a" transform="scale(-1,1)"/>
</g>
</defs>


<g fill="#fc0" transform="scale(20)" id="ringStar">
	<use xlink:href="#s" y="-6"/>
	<use xlink:href="#s" y="6"/>
	<g id="l">
		<use xlink:href="#s" x="-6"/>
		<use xlink:href="#s" transform="rotate(150)translate(0,6)rotate(66)"/>
		<use xlink:href="#s" transform="rotate(120)translate(0,6)rotate(24)"/>
		<use xlink:href="#s" transform="rotate(60)translate(0,6)rotate(12)"/>
		<use xlink:href="#s" transform="rotate(30)translate(0,6)rotate(42)"/>
	</g>
	<use xlink:href="#l" transform="scale(-1,1)"/>
</g>
<rect fill="#039" width="1080" height="540"/>

<rect fill="#fc0" y="235" x="50" height="70" width="1030" />
<rect fill="#fc0" y="102.5" x="240" height="10" width="1080" />
<rect fill="#fc0" y="122.5" x="280" height="17.5" width="1080" />
<rect fill="#fc0" y="150" x="300" height="10" width="1080" />
<rect fill="#fc0" y="170" x="320" height="35" width="1080" />
<rect fill="#fc0" y="335" x="320" height="35" width="1080" />
<rect fill="#fc0" y="380" x="300" height="10" width="1080" />
<rect fill="#fc0" y="400" x="280" height="17.5" width="1080" />
<rect fill="#fc0" y="427.5" x="240" height="10" width="1080" />

<circle cx="180" cy="270" r="180" fill="#fc0" />
<rect fill="#039" y="205" x="330" width="30" height="10"/>
<rect fill="#039" y="325" x="330" width="30" height="10"/>
<rect fill="#039" y="370" x="300" width="50" height="10"/>
<rect fill="#039" y="390" x="290" width="50" height="10"/>
<rect fill="#039" y="417.5" x="240" width="50" height="10"/>
<rect fill="#039" y="160" x="300" width="50" height="10"/>
<rect fill="#039" y="140" x="290" width="50" height="10"/>
<rect fill="#039" y="112.5" x="240" width="50" height="10"/>
<circle cx="180" cy="270" r="170" fill="#039" />
<circle cx="180" cy="270" r="160" fill="#fc0" />
<circle cx="180" cy="270" r="150" fill="#039" />

<rect fill="#fc0" y="215" x="350" width="730" height="10"/>
<rect fill="#039" y="225" x="340" width="30" height="10"/>
<rect fill="#fc0" y="315" x="350" width="730" height="10"/>
<rect fill="#039" y="305" x="340" width="30" height="10"/>

<use xlink:href="#ringStar" x="180" y="270" />
</svg>