<?xml version="1.0" encoding="UTF-8" standalone="no"?>
<svg xmlns="http://www.w3.org/2000/svg"
    xmlns:xlink="http://www.w3.org/1999/xlink"
    height="2000"
    width="2000"
    version="1.1"
    viewBox="0 0 2000 2000"
>
    <!-- background: "#5f8dd3" -->
    <!-- between star tesselation: "#3771c8" -->
    <!-- stars tesselation: "#afc6e9" -->
    <!-- stars: "#fc0" -->
    <rect
        height="2000"
        width="2000"
        fill="#5f8dd3"
    />
    <g id="star" transform="translate(1000, 1000) scale(30, 30)">
        <path
            d="
                M 0.5773502691722515 0
                L 0.8660254037844387 0.5
                L 0.2886751345861258 0.5
                L 0 1
                L -0.28867513458612565 0.5
                L -0.8660254037844385 0.5
                L -0.5773502691722515 0
                L -0.866025403784439 -0.5
                L -0.28867513458612604 -0.5
                L 0 -1
                L 0.2886751345861258 -0.5
                L 0.8660254037844388 -0.5
            "
        />
    </g>

    <use xlink:href="#star" fill="#afc6e9" />

    <g id="firstCircle" fill="#afc6e9">
        <use x="-26" y="-105" xlink:href="#star" />
        <use x="-78" y="-75" xlink:href="#star" />
        <use x="-104" y="-30" xlink:href="#star" />
        <use x="-26" y="105" xlink:href="#star" />
        <use x="-78" y="75" xlink:href="#star" />
        <use x="-104" y="30" xlink:href="#star" />

        <use x="26" y="-105" xlink:href="#star" />
        <use x="78" y="-75" xlink:href="#star" />
        <use x="104" y="-30" xlink:href="#star" />
        <use x="26" y="105" xlink:href="#star" />
        <use x="78" y="75" xlink:href="#star" />
        <use x="104" y="30" xlink:href="#star" />
    </g>
    <g id="secondCircle" fill="#afc6e9">
        <use x="208" y="0" xlink:href="#star" fill="#fc0" />
        <use x="208" y="60" xlink:href="#star" />
        <use x="182" y="105" xlink:href="#star" fill="#fc0" />
        <use x="156" y="150" xlink:href="#star" />
        <use x="104" y="180" xlink:href="#star" fill="#fc0" />
        <use x="52" y="210" xlink:href="#star" />
        <use x="0" y="210" xlink:href="#star" fill="#fc0" />
        <use x="-208" y="0" xlink:href="#star" fill="#fc0" />
        <use x="-208" y="60" xlink:href="#star" />
        <use x="-182" y="105" xlink:href="#star" fill="#fc0" />
        <use x="-156" y="150" xlink:href="#star" />
        <use x="-104" y="180" xlink:href="#star" fill="#fc0" />
        <use x="-52" y="210" xlink:href="#star" />
        <use x="-0" y="210" xlink:href="#star" fill="#fc0" />
        <use x="208" y="-60" xlink:href="#star" />
        <use x="182" y="-105" xlink:href="#star" fill="#fc0" />
        <use x="156" y="-150" xlink:href="#star" />
        <use x="104" y="-180" xlink:href="#star" fill="#fc0" />
        <use x="52" y="-210" xlink:href="#star" />
        <use x="0" y="-210" xlink:href="#star" fill="#fc0" />
        <use x="-208" y="-60" xlink:href="#star"/>
        <use x="-182" y="-105" xlink:href="#star" fill="#fc0" />
        <use x="-156" y="-150" xlink:href="#star" />
        <use x="-104" y="-180" xlink:href="#star" fill="#fc0" />
        <use x="-52" y="-210" xlink:href="#star" />
        <use x="-0" y="-210" xlink:href="#star" fill="#fc0" />
    </g>
    <g id="thirdCircle" fill="#afc6e9">
        <use x="312" y="30" xlink:href="#star" />
        <use x="312" y="90" xlink:href="#star" />
        <use x="286" y="135" xlink:href="#star" />
        <use x="260" y="180" xlink:href="#star" />
        <use x="234" y="225" xlink:href="#star" />
        <use x="182" y="255" xlink:href="#star" />
        <use x="130" y="285" xlink:href="#star" />
        <use x="78" y="315" xlink:href="#star" />
        <use x="26" y="315" xlink:href="#star" />
        <use x="312" y="-30" xlink:href="#star" />
        <use x="312" y="-90" xlink:href="#star" />
        <use x="286" y="-135" xlink:href="#star" />
        <use x="260" y="-180" xlink:href="#star" />
        <use x="234" y="-225" xlink:href="#star" />
        <use x="182" y="-255" xlink:href="#star" />
        <use x="130" y="-285" xlink:href="#star" />
        <use x="78" y="-315" xlink:href="#star" />
        <use x="26" y="-315" xlink:href="#star" />

        <use x="-312" y="30" xlink:href="#star" />
        <use x="-312" y="90" xlink:href="#star" />
        <use x="-286" y="135" xlink:href="#star" />
        <use x="-260" y="180" xlink:href="#star" />
        <use x="-234" y="225" xlink:href="#star" />
        <use x="-182" y="255" xlink:href="#star" />
        <use x="-130" y="285" xlink:href="#star" />
        <use x="-78" y="315" xlink:href="#star" />
        <use x="-26" y="315" xlink:href="#star" />
        <use x="-312" y="-30" xlink:href="#star" />
        <use x="-312" y="-90" xlink:href="#star" />
        <use x="-286" y="-135" xlink:href="#star" />
        <use x="-260" y="-180" xlink:href="#star" />
        <use x="-234" y="-225" xlink:href="#star" />
        <use x="-182" y="-255" xlink:href="#star" />
        <use x="-130" y="-285" xlink:href="#star" />
        <use x="-78" y="-315" xlink:href="#star" />
        <use x="-26" y="-315" xlink:href="#star" />
    </g>
    <g id="fourthCircle" fill="#afc6e9">
        <use x="-52" y="-420" xlink:href="#star" />
        <use x="-104" y="-420" xlink:href="#star" />
        <use x="-156" y="-390" xlink:href="#star" />
        <use x="-208" y="-360" xlink:href="#star" />
        <use x="-260" y="-330" xlink:href="#star" />
        <use x="-312" y="-300" xlink:href="#star" />
        <use x="-338" y="-255" xlink:href="#star" />
        <use x="-364" y="-210" xlink:href="#star" />
        <use x="-390" y="-165" xlink:href="#star" />
        <use x="-416" y="-120" xlink:href="#star" />
        <use x="-416" y="-60" xlink:href="#star" />
        <use x="-416" y="0" xlink:href="#star" />
        <use x="0" y="-420" xlink:href="#star" />
        <use x="52" y="-420" xlink:href="#star" />
        <use x="104" y="-420" xlink:href="#star" />
        <use x="156" y="-390" xlink:href="#star" />
        <use x="208" y="-360" xlink:href="#star" />
        <use x="260" y="-330" xlink:href="#star" />
        <use x="312" y="-300" xlink:href="#star" />
        <use x="338" y="-255" xlink:href="#star" />
        <use x="364" y="-210" xlink:href="#star" />
        <use x="390" y="-165" xlink:href="#star" />
        <use x="416" y="-120" xlink:href="#star" />
        <use x="416" y="-60" xlink:href="#star" />
        <use x="416" y="0" xlink:href="#star" />

        <use x="-52" y="420" xlink:href="#star" />
        <use x="-104" y="420" xlink:href="#star" />
        <use x="-156" y="390" xlink:href="#star" />
        <use x="-208" y="360" xlink:href="#star" />
        <use x="-260" y="330" xlink:href="#star" />
        <use x="-312" y="300" xlink:href="#star" />
        <use x="-338" y="255" xlink:href="#star" />
        <use x="-364" y="210" xlink:href="#star" />
        <use x="-390" y="165" xlink:href="#star" />
        <use x="-416" y="120" xlink:href="#star" />
        <use x="-416" y="60" xlink:href="#star" />
        <use x="0" y="420" xlink:href="#star" />
        <use x="52" y="420" xlink:href="#star" />
        <use x="104" y="420" xlink:href="#star" />
        <use x="156" y="390" xlink:href="#star" />
        <use x="208" y="360" xlink:href="#star" />
        <use x="260" y="330" xlink:href="#star" />
        <use x="312" y="300" xlink:href="#star" />
        <use x="338" y="255" xlink:href="#star" />
        <use x="364" y="210" xlink:href="#star" />
        <use x="390" y="165" xlink:href="#star" />
        <use x="416" y="120" xlink:href="#star" />
        <use x="416" y="60" xlink:href="#star" />
    </g>
    <g id="fifthCircle" fill="#afc6e9">
        <use x="26" y="-525" xlink:href="#star" />
        <use x="78" y="-525" xlink:href="#star" />
        <use x="130" y="-525" xlink:href="#star" />
        <use x="182" y="-495" xlink:href="#star" />
        <use x="234" y="-465" xlink:href="#star" />
        <use x="286" y="-435" xlink:href="#star" />
        <use x="338" y="-405" xlink:href="#star" />
        <use x="390" y="-375" xlink:href="#star" />
        <use x="416" y="-330" xlink:href="#star" />
        <use x="442" y="-285" xlink:href="#star" />
        <use x="468" y="-240" xlink:href="#star" />
        <use x="494" y="-195" xlink:href="#star" />
        <use x="520" y="-150" xlink:href="#star" />
        <use x="520" y="-90" xlink:href="#star" />
        <use x="520" y="-30" xlink:href="#star" />
        <use x="-26" y="-525" xlink:href="#star" />
        <use x="-78" y="-525" xlink:href="#star" />
        <use x="-130" y="-525" xlink:href="#star" />
        <use x="-182" y="-495" xlink:href="#star" />
        <use x="-234" y="-465" xlink:href="#star" />
        <use x="-286" y="-435" xlink:href="#star" />
        <use x="-338" y="-405" xlink:href="#star" />
        <use x="-390" y="-375" xlink:href="#star" />
        <use x="-416" y="-330" xlink:href="#star" />
        <use x="-442" y="-285" xlink:href="#star" />
        <use x="-468" y="-240" xlink:href="#star" />
        <use x="-494" y="-195" xlink:href="#star" />
        <use x="-520" y="-150" xlink:href="#star" />
        <use x="-520" y="-90" xlink:href="#star" />
        <use x="-520" y="-30" xlink:href="#star" />

        <use x="26" y="525" xlink:href="#star" />
        <use x="78" y="525" xlink:href="#star" />
        <use x="130" y="525" xlink:href="#star" />
        <use x="182" y="495" xlink:href="#star" />
        <use x="234" y="465" xlink:href="#star" />
        <use x="286" y="435" xlink:href="#star" />
        <use x="338" y="405" xlink:href="#star" />
        <use x="390" y="375" xlink:href="#star" />
        <use x="416" y="330" xlink:href="#star" />
        <use x="442" y="285" xlink:href="#star" />
        <use x="468" y="240" xlink:href="#star" />
        <use x="494" y="195" xlink:href="#star" />
        <use x="520" y="150" xlink:href="#star" />
        <use x="520" y="90" xlink:href="#star" />
        <use x="520" y="30" xlink:href="#star" />
        <use x="-26" y="525" xlink:href="#star" />
        <use x="-78" y="525" xlink:href="#star" />
        <use x="-130" y="525" xlink:href="#star" />
        <use x="-182" y="495" xlink:href="#star" />
        <use x="-234" y="465" xlink:href="#star" />
        <use x="-286" y="435" xlink:href="#star" />
        <use x="-338" y="405" xlink:href="#star" />
        <use x="-390" y="375" xlink:href="#star" />
        <use x="-416" y="330" xlink:href="#star" />
        <use x="-442" y="285" xlink:href="#star" />
        <use x="-468" y="240" xlink:href="#star" />
        <use x="-494" y="195" xlink:href="#star" />
        <use x="-520" y="150" xlink:href="#star" />
        <use x="-520" y="90" xlink:href="#star" />
        <use x="-520" y="30" xlink:href="#star" />
    </g>
</svg>
