<?xml version="1.0" encoding="UTF-8" standalone="no"?>

<svg width="350" height="800" xmlns:svg="http://www.w3.org/2000/svg" xmlns="http://www.w3.org/2000/svg" xmlns:xlink="http://www.w3.org/1999/xlink" version="1.1">
    <title>The Helle Flag</title>
    <path fill="#a10" d="
        m 0,0
        l 0,700
        l 175,100
        l 175,-100
        l 0,-700 z" />
    <rect y="200" x="65" width="50" height="600" fill="#c33" />
    <rect y="200" x="150" width="50" height="600" fill="#c33" />
    <rect y="200" x="235" width="50" height="600" fill="#c33" />
    <path fill="#a10" d="
        m 175,340
        L 65,737
        L 0,700
        L 0,0" />
    <path fill="#a10" d="
        m 175,340
        L 285,737
        L 350,700
        L 350,0" />
    <rect y="20" width="350" height="30" fill="#c33" />
    <circle cy="200" cx="175" r="140" fill="#a10" />
    <circle cy="200" cx="175" r="110" fill="#fff" />
    <path fill="#fff" d="m 0,800 l 0,-100 l 175,100 l 175,-100 l 0,100" />
    <g id="theHelle" fill="#ccab00" transform="translate(60,155) scale(2,2) rotate(-35)">
        <g id="shaff">
            <path d="
            m 26,39
            c 2,-6.6 2.5,-19.6 3.2,-30.8 -3.7,5.8 -6.6,9.2 -14.1,13
            l 12.5,29
            c -0.55,-3.5 -1.1,-6.7 -1.6,-11.4 z" />
        </g>
        <g id="halfHandle">
            <path d="
            M 37,20
            l -7,0
            c -1,7 0,13 -2,19 3,33 2,42 2,59
            l 7,0" />
        </g>
        <use xlink:href="#halfHandle" transform="translate(67,0) scale(-1,1)" />
        <use xlink:href="#shaff" transform="translate(67,0) scale(-1,1)" />
    </g>
</svg>
