<?xml version="1.0" encoding="UTF-8" standalone="no"?>

<svg width="800" height="350" xmlns:svg="http://www.w3.org/2000/svg" xmlns="http://www.w3.org/2000/svg" xmlns:xlink="http://www.w3.org/1999/xlink" version="1.1">
    <title>The Helle Flag</title>
    <path fill="#a10" d="
        m 0,0
        l 700,0
        l 100,175
        l -100,175
        l -700,0 z" />
    <rect x="200" y="65" height="50" width="600" fill="#c33" />
    <rect x="200" y="150" height="50" width="600" fill="#c33" />
    <rect x="200" y="235" height="50" width="600" fill="#c33" />
    <path fill="#a10" d="
        m 340,175
        L 737,65
        L 700,0
        L 0,0" />
    <path fill="#a10" d="
        m 340,175
        L 737,285
        L 700,350
        L 0,350" />
    <rect x="20" height="350" width="30" fill="#c33" />
    <circle cx="200" cy="175" r="140" fill="#a10" />
    <circle cx="200" cy="175" r="110" fill="#fff" />
    <path fill="#fff" d="m 800,0 l -100,0 l 100,175 l -100,175 l 100,0" />
    <g id="theHelle" fill="#ccab00" transform="translate(85,130) scale(2,2) rotate(-35)">
        <g id="shaff">
            <path d="
            m 26,39
            c 2,-6.6 2.5,-19.6 3.2,-30.8 -3.7,5.8 -6.6,9.2 -14.1,13
            l 12.5,29
            c -0.55,-3.5 -1.1,-6.7 -1.6,-11.4 z" />
        </g>
        <g id="halfHandle">
            <path d="
            M 37,20
            l -7,0
            c -1,7 0,13 -2,19 3,33 2,42 2,59
            l 7,0" />
        </g>
        <use xlink:href="#halfHandle" transform="translate(67,0) scale(-1,1)" />
        <use xlink:href="#shaff" transform="translate(67,0) scale(-1,1)" />
    </g>
</svg>
