<?xml version="1.0" encoding="UTF-8" standalone="no"?>
<svg width="1800" height="1200" viewBox="0 0 900 600" xmlns="http://www.w3.org/2000/svg" xmlns:xlink="http://www.w3.org/1999/xlink" version="1.1">
    <defs>
        <g id="star" transform="translate(450,300) scale(10)">
            <path d="
                M6,6 l8,-20 l-20,8
                M-6,6 l20,8 l-8,-20
                M6,-6 l-20,-8 l8,20
                M-6,-6 l-8,20 l20,-8
            " />
        </g>
    </defs>

    <rect width="900" height="600" fill="#044e83" />

    <line x1="450" x2="450" y1="0" y2="600" stroke="#e94f4c" stroke-width="75" />
    <line x1="0" x2="900" y1="300" y2="300" stroke="#e94f4c" stroke-width="75" />

    <line x1="0" x2="900" y1="300" y2="300" stroke="#044e83" stroke-width="55" />
    <line x1="450" x2="450" y1="0" y2="600" stroke="#044e83" stroke-width="55" />

    <line x1="0" x2="900" y1="300" y2="300" stroke="#e94f4c" stroke-width="40" />
    <line x1="450" x2="450" y1="0" y2="600" stroke="#e94f4c" stroke-width="40" />

    <line x1="100" x2="800" y1="-50" y2="650" stroke="#fff" stroke-width="70" />
    <line x1="800" x2="100" y1="-50" y2="650" stroke="#fff" stroke-width="70" />

    <use xlink:href="#star" fill="#044e83" />
    <circle cx="450" cy="300" r="120" fill="#044e83" />
    <circle cx="450" cy="300" r="100" fill="#e94f4c" />

    <use xlink:href="#star" transform="scale(0.4) translate(-136,42.5)" fill="#f0a331" />
    <use xlink:href="#star" transform="scale(0.4) translate(1486,42.5)" fill="#f0a331" />
    <use xlink:href="#star" transform="scale(0.4) translate(-136,857.5)" fill="#f0a331" />
    <use xlink:href="#star" transform="scale(0.4) translate(1486,857.5)" fill="#f0a331" />
</svg>