<?xml version="1.0" encoding="UTF-8" standalone="no"?>
<svg xmlns="http://www.w3.org/2000/svg" version="1.1" viewBox="0 0 12.3 13.3" width="2000px">
   <g transform="translate(0.15,0.15)">
      <defs>
         <clipPath id="lower-roof" clipPathUnits="userSpaceOnUse">
            <path d="M2.8,6.38 l6.45,0 l0.2,3 l-6.85,0" />
         </clipPath>
         <clipPath id="upper-roof" clipPathUnits="userSpaceOnUse">
            <path d="M4.95,2.88 l2.1,0 l0,1.05 l-2.1,0" />
         </clipPath>
         <clipPath id="gate" clipPathUnits="userSpaceOnUse">
            <path d="M6,9.4 l-1,0 l0,-1.3 a0.1,0.1,10,0,1,2,0 l0,1.3 l2.5,0 l0,-3.5 l-7,0 l0,3.5" />
         </clipPath>
         <clipPath id="crest" clipPathUnits="userSpaceOnUse">
            <path d="M0,0 l12,0 l0,5.5 c0,3 -3.3,6.6, -6,7.5 c-2.7,-0.9 -6,-4.5 -6,-7.5z" />
         </clipPath>
      </defs>
      <path fill="#fff" d="M0,0 l12,0 l0,5.5 c0,3 -3.3,6.6, -6,7.5 c-2.7,-0.9 -6,-4.5 -6,-7.5z" />
      <g stroke="#cb102e" stroke-width="10" clip-path="url(#crest)">
         <path d="M0,-10 l50,50" />
         <path d="M-20.3,-10 l50,50" />
      </g>
      <path stroke="#000" fill="none" stroke-width="0.15" d="M0,0 l12,0 l0,5.5 c0,3 -3.3,6.6, -6,7.5 c-2.7,-0.9 -6,-4.5 -6,-7.5z" />
      <g fill="#d1b227">
         <path d="M4.95,2.88 l2.1,0 l0,1.05 l-2.1,0" />
         <path d="M2.8,6.38 l6.45,0 l0.2,3 l-6.85,0" clip-path="url(#gate)" />
      </g>
      <g fill="#ac9016">
         <path d="M2.55,6.3 l0.4,0.4 l6.45,0 l0,-0.4" clip-path="url(#lower-roof)" />
         <path d="M4.7,2.8 l0.4,0.4 l2.1,0 l0,-0.4" clip-path="url(#upper-roof)" />
      </g>
      <g fill="#000">
         <path d="M4.8,2.9 l2.4,0 l-0.3,-2 l-1.8,0" />
         <path d="M2.65,6.4 l6.75,0 l-0.6,-2.5 l-5.55,0" />
      </g>
   </g>
</svg>