<?xml version="1.0" encoding="UTF-8"?>
<svg xmlns="http://www.w3.org/2000/svg"
	version="1.1" width="600px" height="600px" viewBox="-20 -20 670 670">
	
	<polygon points="10 160 310 10 610 160 610 460 310 610 10 460" fill="none" stroke="black" stroke-width="40px"/>
	<line x1="310" y1="15" x2="310" y2="605" stroke="black" stroke-width="85px"/>
	<polygon points="160 235 310 160 460 235 460 385 310 460 160 385" fill="none" stroke="black" stroke-width="40px"/>
	<line x1="460" y1="245" x2="460" y2="290" stroke="white" stroke-width="42px"/>
	<line x1="400" y1="270" x2="530" y2="210" stroke="white" stroke-width="25px"/>
	<line x1="385" y1="310" x2="469" y2="310" stroke="black" stroke-width="40px"/>
	<line x1="310" y1="-15" x2="310" y2="635" stroke="white" stroke-width="5px"/>
	<line x1="355" y1="100" x2="355" y2="500" stroke="white" stroke-width="5px"/>
	<line x1="265" y1="100" x2="265" y2="500" stroke="white" stroke-width="5px"/>
	
	<!--
	<line x1="10" y1="160" x2="610" y2="460" stroke="green" stroke-width="7px"/>
	<line x1="10" y1="460" x2="610" y2="160" stroke="green" stroke-width="7px"/>
	-->
	
	<line x1="-12" y1="149" x2="50" y2="180" stroke="black" stroke-width="30px"/>
	<line x1="570" y1="440" x2="632" y2="471" stroke="black" stroke-width="30px"/>
	<line x1="-12" y1="471" x2="50" y2="440" stroke="black" stroke-width="30px"/>
	<line x1="570" y1="180" x2="632" y2="149" stroke="black" stroke-width="30px"/>
	
	<line x1="138" y1="224" x2="200" y2="255" stroke="black" stroke-width="30px"/>
	<line x1="420" y1="365" x2="482" y2="396" stroke="black" stroke-width="30px"/>
	<line x1="138" y1="396" x2="200" y2="365" stroke="black" stroke-width="30px"/>
	<line x1="420" y1="255" x2="482" y2="224" stroke="black" stroke-width="30px"/>
	
	<line x1="-20" y1="145" x2="250" y2="280" stroke="white" stroke-width="5px"/>
	<line x1="360" y1="335" x2="640" y2="475" stroke="white" stroke-width="5px"/>
	<line x1="-20" y1="475" x2="260" y2="335" stroke="white" stroke-width="5px"/>
	<line x1="360" y1="285" x2="640" y2="145" stroke="white" stroke-width="5px"/>
</svg>