<?xml version="1.0" encoding="UTF-8"?>
<svg xmlns="http://www.w3.org/2000/svg"
	version="1.1" width="600px" height="600px" viewBox="-40 -40 720 720">
	
	<!-- inneres Sechseck -->
	<polygon points="160 235 310 160 460 235 460 385 310 460 160 385" fill="none" stroke="black" stroke-width="70px"/>
	
	<!-- senkrechter dicker Strich -->
	<line x1="310" y1="15" x2="310" y2="605" stroke="black" stroke-width="160px"/>
	
	<!-- senkrechte weiße Striche in den Ds -->
	<line x1="353" y1="60" x2="353" y2="560" stroke="white" stroke-width="10px"/>
	<line x1="267" y1="60" x2="267" y2="560" stroke="white" stroke-width="10px"/>
	
	<!-- äußereses Sechseck -->
	<polygon points="10 160 310 10 610 160 610 460 310 610 10 460" fill="none" stroke="black" stroke-width="70px"/>
	
	<!-- senkrechter weißer Strich -->
	<line x1="310" y1="-35" x2="310" y2="655" stroke="white" stroke-width="10px"/>
	
	<!-- weißer Strich um das G aufzulösen -->
	<line x1="470" y1="250" x2="470" y2="290" stroke="white" stroke-width="72px"/>
	
	<!-- diagonaler Strich um das G abzurunden -->
	<line x1="420" y1="286" x2="530" y2="219" stroke="white" stroke-width="45px"/>
	
	<!-- waagrechter schwarzer Strich des Gs -->
	<line x1="385" y1="310" x2="495" y2="310" stroke="black" stroke-width="70px"/>
	
	<!-- senkrechte weiße Striche um das G von den Ds zu lösen -->
	<line x1="395" y1="120" x2="395" y2="500" stroke="white" stroke-width="10px"/>
	<line x1="225" y1="120" x2="225" y2="500" stroke="white" stroke-width="10px"/>
	
</svg>