<?xml version="1.0" encoding="UTF-8" standalone="no"?>
<!DOCTYPE svg PUBLIC "-//W3C//DTD SVG 1.1//EN" "http://www.w3.org/Graphics/SVG/1.1/DTD/svg11.dtd">
<svg version="1.1" xmlns="http://www.w3.org/2000/svg" xmlns:xlink="http://www.w3.org/1999/xlink" width="1000" height="700">
  <rect height="700" width="1000" fill="#BAF" />
  <path d="M0 10 L-10 -10 L10 -10" transform="scale(20 20) translate(25 17.5)"/>
  <rect height="20" width="1000" y="170" fill="#BAF" />
  <rect height="20" width="1000" y="210" fill="#BAF" />
  <rect height="20" width="1000" y="250" fill="#BAF" />
  <rect height="20" width="1000" y="290" fill="#BAF" />
  <rect height="20" width="1000" y="330" fill="#BAF" />
  <rect height="20" width="1000" y="370" fill="#BAF" />
  <rect height="20" width="1000" y="410" fill="#BAF" />
  <rect height="20" width="1000" y="450" fill="#BAF" />
  <rect height="20" width="1000" y="490" fill="#BAF" />
  <path d="M0 10 L-7 -10 L7 -10" transform="scale(12 12) translate(41.6666666666 23.4)" fill="#BAF"/>
  <path d="M0 10 L-7 -10 L7 -10" transform="scale(10 10) translate(50 27)"/>
</svg>