<?xml version="1.0" encoding="UTF-8" standalone="no"?>
<svg xmlns="http://www.w3.org/2000/svg" version="1.1" viewBox="0 0 12.3 13.3" width="200px">
   <defs>
      <g id="window">
         <path fill="#000" d="M0,0 l0.35,0 l0,-0.35 a0.175,0.175,180,1,0,-0.35,0">
      </g>
   </defs>
   <g transform="translate(0.15,0.15)">
      <path fill="#fff" d="M0,0 l12,0 l0,5.5 c0,3 -3.3,6.6, -6,7.5 c-2.7,-0.9 -6,-4.5 -6,-7.5z" stroke-width="0.15" fill="none" />
      <path fill="#f00" d="M2.9,0 l8.3,8.3 l0.5,-1 l0.25,-1 l0.1,-1 l0,-5.3" />
      <path fill="#f00" d="M0,3.2 l8.42,8.42 l-1,0.7 l-1,0.5 l-0.4,0.2 c-2.7,-0.9 -6,-4.5 -6,-7.5" />
      <path stroke="#000" d="M0,0 l12,0 l0,5.5 c0,3 -3.3,6.6, -6,7.5 c-2.7,-0.9 -6,-4.5 -6,-7.5z" fill="none" stroke-width="0.15" fill="none" />
      <path fill="#000" d="M4.8,2.9 l2.4,0 l-0.3,-2 l-1.8,0" />
      <path fill="#aa0" d="M4.95,2.9 l2.1,0 l0,1 l-2.1,0" />
      <path fill="#000" d="M2.65,6.4 l6.75,0 l-0.6,-2.5 l-5.55,0" />
      <path fill="#aa0" d="M2.8,6.4 l6.45,0 l0.2,3 l-6.85,0" />
      <use xlink:href="#window" x="3.275" y="7.2" />
      <use xlink:href="#window" x="3.9125" y="8.3" />
      <use xlink:href="#window" x="4.55" y="7.2" />
      <use xlink:href="#window" x="5.825" y="7.2" />
      <use xlink:href="#window" x="1.585" y="3.14" transform="scale(3.4,3)" />
      <use xlink:href="#window" x="7.1" y="7.2" />
      <use xlink:href="#window" x="7.7375" y="8.3" />
      <use xlink:href="#window" x="8.375" y="7.2" />
      <use xlink:href="#window" x="7.33" y="4.3" transform="scale(0.8)" />
      <use xlink:href="#window" x="8.85" y="6.5" transform="scale(0.6)" />
      <use xlink:href="#window" x="10.8" y="6.5" transform="scale(0.6)" />
   </g>
</svg>