<?xml version="1.0" encoding="UTF-8" standalone="no"?>
<svg xmlns="http://www.w3.org/2000/svg" version="1.1" viewBox="0 0 12.3 13.3" width="2000px">
   <g transform="translate(0.15,0.15)">
      <defs>
         <clipPath id="lower-roof" clipPathUnits="userSpaceOnUse">
            <path d="M2.8,6.38 l6.45,0 l0.2,3 l-6.85,0" />
         </clipPath>
         <clipPath id="upper-roof" clipPathUnits="userSpaceOnUse">
            <path d="M4.95,2.88 l2.1,0 l0,1.05 l-2.1,0" />
         </clipPath>
         <clipPath id="gate" clipPathUnits="userSpaceOnUse">
            <path d="M6,9.4 l-1,0 l0,-1.3 a0.1,0.1,10,0,1,2,0 l0,1.3 l2.5,0 l0,-3.5 l-7,0 l0,3.5" />
         </clipPath>
      </defs>
      <path fill="#fff" stroke-width="0.15" d="M0,0 l12,0 l0,5.5 c0,3 -3.3,6.6, -6,7.5 c-2.7,-0.9 -6,-4.5 -6,-7.5z" />
      <path fill="#C8102E" d="M2.9,0 l8.3,8.3 l0.5,-1 l0.25,-1 l0.1,-1 l0,-5.3" />
      <path fill="#C8102E" d="M0,3.2 l8.42,8.42 l-1,0.7 l-1,0.5 l-0.4,0.2 c-2.7,-0.9 -6,-4.5 -6,-7.5" />
      <path stroke="#000" fill="none" stroke-width="0.15" d="M0,0 l12,0 l0,5.5 c0,3 -3.3,6.6, -6,7.5 c-2.7,-0.9 -6,-4.5 -6,-7.5z" />
      <path fill="#b3b31d" d="M4.95,2.88 l2.1,0 l0,1.05 l-2.1,0" />
      <path fill="#b3b31d" d="M2.8,6.38 l6.45,0 l0.2,3 l-6.85,0" clip-path="url(#gate)" />
      <path fill="#919119" d="M2.55,6.3 l0.4,0.4 l6.45,0 l0,-0.4" clip-path="url(#lower-roof)" />
      <path fill="#919119" d="M4.7,2.8 l0.4,0.4 l2.1,0 l0,-0.4" clip-path="url(#upper-roof)" />
      <path fill="#000" d="M4.8,2.9 l2.4,0 l-0.3,-2 l-1.8,0" />
      <path fill="#000" d="M2.65,6.4 l6.75,0 l-0.6,-2.5 l-5.55,0" />
   </g>
</svg>