<?xml version="1.0" standalone="no"?>
<svg xmlns="http://www.w3.org/2000/svg" xmlns:xlink="http://www.w3.org/1999/xlink" version="1.1" width="1000" height="600" viewBox="0 0 1000 600">
    <defs>
        <g id="s" transform="scale(21)">
            <g id="c">
                <path id="t" d="M0,0v1h0.5z" transform="translate(0,-1)rotate(18)"/>
                <use xlink:href="#t" transform="scale(-1,1)"/>
            </g>
            <g id="a">
                <use xlink:href="#c" transform="rotate(72)"/>
                <use xlink:href="#c" transform="rotate(144)"/>
            </g>
            <use xlink:href="#a" transform="scale(-1,1)"/>
        </g>
        <g id="castelo">
            <rect class="fil4 str2" x="-92.5" y="84" width="185" height="16" rx="7" ry="8"/>
            <path class="fil4 str2" d="M-83,84 h 166 l -8,-65 h-152 l -8,65 z"/>
            <path class="fil4 str2" d="M-42,84 a63,65 0 0,1 42,-65 a63,65 0 0,1 42,65 z"/>
            <path class="fil4 str2" d="M-24,84 a36,43 0 0,1 24,-43 a36,43 0 0,1 24,43z"/>
            <rect class="fil4 str2" x="-85" y="5" width="170" height="14" rx="7" ry="8"/>
            <rect class="fil4 str2" x="-88.5" y="-9" width="177" height="14" rx="7" ry="8"/>
            <path class="fil4 str2" d="M-76,-9 h 42 l-1,-35 h-40 z"/>
            <path class="fil6" d="M-59,-19 h 8 v -13 a4,4 0 0,0 -8,0 z"/>
            <path class="fil4 str2" d="M-82,-70 h 12 v9 h9 v-9 h12 v9 h9 v-9 h 12 v20 a5,6 0 0,1 -5,6 h-44 a5,6 0 0,1 -5,-6 z"/>
            <path class="fil4 str2" d="M-21,-9 h 42 l-2.5,-65 h-37 z"/>
            <path class="fil6" d="M-4,-39 h 8 v -13 a4,4 0 0,0 -8,0 z"/>
            <path class="fil4 str2" d="M-28,-100 h 12 v9 h9 v-9 h12 v9 h9 v-9 h 12 v20 a5,6 0 0,1 -5,6 h-44 a5,6 0 0,1 -5,-6 z"/>
            <path class="fil4 str2" d="M34,-9 h 42 l-1,-35 h-40 z"/>
            <path class="fil6" d="M51,-19 h 8 v -13 a4,4 0 0,0 -8,0 z"/>
            <path class="fil4 str2" d="M28,-70 h 12 v9 h9 v-9 h12 v9 h9 v-9 h 12 v20 a5,6 0 0,1 -5,6 h-44 a5,6 0 0,1 -5,-6 z"/>
        </g>
        <style type="text/css">
            .fil1{fill:#fff}.fil4{fill:#ff0}.fil6{fill:#000}.str2{stroke:#000;stroke-width:5}
        </style>
    </defs>
    <rect fill="#006600" x="400" height="600" width="240"/>
    <rect fill="#FF0000" x="640" height="600" width="360"/>
    <rect fill="#039" width="400" height="600"/>
    <g fill="#fc0" transform="translate(200,300)">
        <use xlink:href="#s" y="-130"/>
        <use xlink:href="#s" y="130"/>
        <g id="l">
            <use xlink:href="#s" x="-130"/>
            <use xlink:href="#s" transform="rotate(150)translate(0,130)rotate(66)"/>
            <use xlink:href="#s" transform="rotate(120)translate(0,130)rotate(24)"/>
            <use xlink:href="#s" transform="rotate(60)translate(0,130)rotate(12)"/>
            <use xlink:href="#s" transform="rotate(30)translate(0,130)rotate(42)"/>
        </g>
        <use xlink:href="#l" transform="scale(-1,1)"/>
    </g>
    <g transform="translate(640,315)scale(0.15)">
        <path id="escudo" class="fil1" d="M-600,-700 h 1200 v800 a600,600 0 0,1 -1200,0 z" style="stroke:#000;stroke-width:6.5"/>
        <path id="bordadura" class="str2" fill-rule="evenodd" d="M-575,-675 h 1150 v775 a575,575 0 0,1 -1150,0 z M-345,-445 h 690 v545 a345,345 0 0,1 -690,0 z" style="fill:red"/>
        <g id="escudete">
            <path id="campo_escudete" d="M-75,-95 h 150 v115 a75,75 0 0,1 -150,0 z" style="fill:#039"/>
            <g transform="translate(0,-15)">
                <circle id="besante" class="fil1" r="15"/>
                <use xlink:href="#besante" x="-40" y="-40"/>
                <use xlink:href="#besante" x="-40" y="40"/>
                <use xlink:href="#besante" x="40" y="-40"/>
                <use xlink:href="#besante" x="40" y="40"/>
            </g>
        </g>
        <use xlink:href="#escudete" y="-280"/>
        <use xlink:href="#escudete" y="280"/>
        <use xlink:href="#escudete" x="-210"/>
        <use xlink:href="#escudete" x="210"/>
        <use xlink:href="#castelo" y="-560"/>
        <use xlink:href="#castelo" x="-465" y="-560"/>
        <use xlink:href="#castelo" x="465" y="-560"/>
        <use xlink:href="#castelo" x="-465" y="-92"/>
        <use xlink:href="#castelo" x="465" y="-92"/>
        <use xlink:href="#castelo" transform="translate(-354,393) rotate(-45)"/>
        <use xlink:href="#castelo" transform="translate(354,393) rotate(45)"/>
    </g>
</svg>
